<svg xmlns="http://www.w3.org/2000/svg" viewBox="0 0 100 100">
  <ellipse cx="49.997" cy="49.997" fill="#fff" rx="49.999" ry="49.997"/>
  <path d="M81.059 52.683a.85536.85536 0 1 1 .85536.81407.83472.83472 0 0 1-.85536-.81407m6.02-8.8692h.70493a.29495.29495 0 0 1 .29496.27431v1.227c.52501-1.05 1.3155-1.6901 2.5395-1.6901s1.9496.64594 2.5454 1.6547a6.6571 6.6571 0 0 1 .78163 3.3212c0 2.3596-.94976 4.9817-3.4539 4.9817-1.0825 0-1.7314-.5899-2.2918-1.404v4.0792a.29495.29495 0 0 1-.29495.27431h-.81407a.29495.29495 0 0 1-.29495-.27431v-12.17a.29495.29495 0 0 1 .29495-.27431m1.1208 4.1441v1.3745a3.9907 3.9907 0 0 0 .48078 1.9644 2.0647 2.0647 0 0 0 1.6694 1.0736c.66953-.03244 1.2329-.51912 1.5721-1.1798a5.4389 5.4389 0 0 0 .46897-2.4245c0-1.5102-.34216-3.7724-2.0116-3.8344a2.2092 2.2092 0 0 0-1.7137 1.1267 3.389 3.389 0 0 0-.47782 1.9201m-4.3594-6.6423a.88486.88486 0 0 1 1.7491 0 .88486.88486 0 0 1-1.7491 0m1.578 2.7844v9.4562c0 .73443-.03253 1.5809-.42179 2.218-.43652.71378-1.1179.99399-2.0057.99399a4.1824 4.1824 0 0 1-.99694-.11503.33625.33625 0 0 1-.27136-.29495v-.6194c0-.14748.10619-.32445.27431-.29495a3.038 3.038 0 0 0 .72558.11208c1.1651-.02949 1.2889-.81407 1.2889-1.9909v-9.465a.29495.29495 0 0 1 .29494-.26546h.79047a.3156.3156 0 0 1 .3156.26841m-21.826 8.5536a.86126.86126 0 1 1 .86421.80817.84061.84061 0 0 1-.86126-.81702m13.249.9173c-2.4776 0-3.5896-2.5277-3.5896-5.0584 0-2.6546 1.3066-4.964 3.8019-4.964h.13273c2.4304 0 3.6368 2.454 3.6368 4.9817 0 2.6782-1.3361 5.0378-3.8344 5.0378h-.14748zm.18287-1.23c.81702-.02655 1.46-.53091 1.8405-1.3745a5.9639 5.9639 0 0 0 .40704-2.454 5.5186 5.5186 0 0 0-.51912-2.6251 1.8877 1.8877 0 0 0-3.5394.22711 6.2589 6.2589 0 0 0-.40703 2.398 6.3798 6.3798 0 0 0 .47192 2.6221 2.0647 2.0647 0 0 0 1.7461 1.2064m-7.9224-.05014c1.112-.03244 1.696-.92615 1.9378-2.0824a.3392.3392 0 0 1 .31855-.25366h.73738a.3156.3156 0 0 1 .31855.29495c-.3392 1.9673-1.5279 3.3035-3.2209 3.3035h-.13272c-2.4628 0-3.5217-2.4746-3.5217-4.9847s1.0736-5.0378 3.5394-5.0378h.13273c1.7078 0 2.9289 1.3184 3.1914 3.2858a.32445.32445 0 0 1-.29495.29495h-.76982a.35984.35984 0 0 1-.29496-.3156c-.18582-1.1002-.81702-1.9732-1.867-2.0057-1.6753.0531-2.1502 2.1148-2.1502 3.6987 0 1.5279.39819 3.7547 2.0647 3.8108m-42.096-7.713c.55452.75508.43948 1.8494.43948 2.8109v5.6572a.33035.33035 0 0 1-.33919.32445h-1.7432a.33035.33035 0 0 1-.31559-.3215v-4.7546a11.323 11.323 0 0 0-.05013-1.6783c-.13272-.58991-.5191-.77278-1.0264-.77278a1.1592 1.1592 0 0 0-1.0441.73443c-.17992.45128-.16223 1.2064-.16223 1.7166v4.7517a.33035.33035 0 0 1-.3392.32445h-1.7402a.33035.33035 0 0 1-.3156-.3215v-4.7546c0-.99989.16222-2.4717-1.0766-2.4717-1.2388 0-1.2093 1.4453-1.2093 2.4717v4.7517a.33035.33035 0 0 1-.3392.32445h-1.7461a.3274.3274 0 0 1-.31268-.29495v-8.9666a.3274.3274 0 0 1 .33625-.32445h1.6252a.3274.3274 0 0 1 .31855.29495v1.1798h.03246c.42768-1.1326 1.2241-1.6606 2.3006-1.6606 1.0766 0 1.7697.52796 2.2652 1.6606a2.5808 2.5808 0 0 1 4.4243-.67839zm-12.683 7.1496a.33035.33035 0 0 1 0 .46308c-.35984.29495-.99104.84946-1.3391 1.1621a.36279.36279 0 0 1-.41293.04129 4.2444 4.2444 0 0 1-1.0028-1.1798c-.95859.97925-1.637 1.2712-2.8787 1.2712-1.4807.0088-2.6251-.90846-2.6251-2.7165a2.9672 2.9672 0 0 1 1.8641-2.8551c.94679-.41588 2.2711-.49257 3.2828-.60465v-.22711c0-.41588.03246-.9055-.21237-1.2653a1.1798 1.1798 0 0 0-.98219-.45423 1.3273 1.3273 0 0 0-1.404 1.05.36869.36869 0 0 1-.29495.3215l-1.696-.18287a.29495.29495 0 0 1-.26251-.36869c.38934-2.0647 2.2446-2.6752 3.9081-2.6752.84947 0 1.9614.22711 2.631.88486.84947.79342.76688 1.8523.76688 3.0056v2.7224c0 .80522.3392 1.1651.65775 1.6075zm-3.1088-2.6398v-.37754c-1.2624 0-2.5985.27136-2.5985 1.7697 0 .75803.39229 1.2653 1.0648 1.2653a1.4128 1.4128 0 0 0 1.2093-.79342c.3392-.61645.32445-1.1857.32445-1.8641zm26.015 2.6398a.3274.3274 0 0 1 0 .46308c-.35689.29495-.99104.84946-1.3391 1.1621a.36279.36279 0 0 1-.41588.04129 4.2414 4.2414 0 0 1-.99989-1.1798c-.96154.97924-1.6399 1.2712-2.8817 1.2712-1.4748 0-2.6133-.90846-2.6133-2.7224a2.9672 2.9672 0 0 1 1.8611-2.8492c.9468-.41588 2.2682-.49257 3.2828-.60465v-.22711c0-.41588.03246-.9055-.21237-1.2653a1.1798 1.1798 0 0 0-.98219-.45423 1.3273 1.3273 0 0 0-1.404 1.05.36869.36869 0 0 1-.29496.3215l-1.693-.18287a.29495.29495 0 0 1-.25956-.36574c.38934-2.0647 2.2416-2.6752 3.9052-2.6752.85241 0 1.9614.22711 2.6339.88486.84947.79342.76688 1.8523.76688 3.0056v2.7224c-.0118.80227.32739 1.1621.64299 1.6045zm-3.1118-2.6398v-.37754c-1.2653 0-2.5985.27136-2.5985 1.7697 0 .75803.38933 1.2653 1.0618 1.2653a1.4187 1.4187 0 0 0 1.2093-.80522c.34509-.60465.32739-1.1739.32739-1.8523zm19.918-.43358c0 2.7342-1.5515 4.9051-3.9966 4.9051-2.5454 0-3.9317-2.2269-3.9317-5.0142s1.404-4.9611 3.9317-4.9611c2.5926.0118 3.9966 2.2387 3.9966 5.0702zm-2.5779.01769a8.2587 8.2587 0 0 0-.26546-2.3773 1.0913 1.0913 0 0 0-1.1415-.86716c-1.286 0-1.3686 1.755-1.3686 2.8492s-.01766 3.4332 1.3538 3.4332c1.3715 0 1.4217-1.8877 1.4217-3.038zm10.601-4.0202a2.2888 2.2888 0 0 0-2.0352-1.0559c-1.2093 0-1.8936.5899-2.3832 1.811h-.03246v-1.3833a.33035.33035 0 0 0-.3097-.25071h-1.6222a.3333.3333 0 0 0-.33625.29495v8.9695a.3274.3274 0 0 0 .31265.3215h1.7343a.33625.33625 0 0 0 .34215-.32445v-4.8166a3.9907 3.9907 0 0 1 .27726-1.6989 1.1385 1.1385 0 0 1 1.0235-.72558c1.2034 0 1.0913 1.4335 1.0913 2.4157v4.8785a.33035.33035 0 0 0 .31264.29495h1.752a.3333.3333 0 0 0 .3333-.29495v-5.6424c0-.86716 0-2.0765-.46013-2.7932zm-17.107 6.2884a6.3798 6.3798 0 0 0-3.2769-.70198l2.9761-4.2473c.27726-.38049.43064-.62235.43064-.80817v-1.1002a.3215.3215 0 0 0-.33035-.3215h-5.7309a.3156.3156 0 0 0-.32444.32445v1.2801a.31855.31855 0 0 0 .33034.3215h3.0026l-3.445 4.9493a1.5367 1.5367 0 0 0-.21237.88486v1.3007c0 .18877.20942.40408.40998.29495a6.6128 6.6128 0 0 1 6.0672 0c.21532.11503.42178-.10324.42178-.29495v-1.3833a.5899.5899 0 0 0-.30675-.49847z"/>
  <path fill="#f90" d="M41.073 56.836c-3.2799 2.4216-8.0345 3.7076-12.128 3.7076a21.953 21.953 0 0 1-14.818-5.6513c-.29495-.2802-.03246-.65774.33625-.44243a29.826 29.826 0 0 0 14.827 3.9347 29.475 29.475 0 0 0 11.306-2.3154c.55452-.23596 1.0205.36574.47782.76688m1.3656-1.5573c-.41883-.53681-2.7726-.25366-3.8344-.12978-.3215.03834-.37164-.24186-.08258-.44243 1.8759-1.3184 4.9552-.93795 5.3091-.49847.35394.43948-.0944 3.5394-1.8523 5.0142-.27136.22711-.52797.10619-.40704-.19172.39524-.98809 1.283-3.2032.86127-3.74"/>
</svg>
