<svg xmlns="http://www.w3.org/2000/svg" viewBox="0 0 100 100">
  <circle cx="50" cy="50" r="50" fill="#fff"/>
  <path d="M81.06 52.68a.86.86 0 1 1 .85.82.83.83 0 0 1-.85-.82m6.02-8.87h.7a.3.3 0 0 1 .3.28v1.23c.52-1.05 1.31-1.7 2.54-1.7s1.95.65 2.54 1.66a6.66 6.66 0 0 1 .79 3.32c0 2.36-.95 4.98-3.46 4.98-1.08 0-1.73-.59-2.29-1.4v4.08a.3.3 0 0 1-.3.27h-.8a.3.3 0 0 1-.3-.27V44.09a.3.3 0 0 1 .3-.28m1.11 4.15v1.37a4 4 0 0 0 .48 1.97 2.06 2.06 0 0 0 1.67 1.07c.67-.03 1.23-.52 1.57-1.18a5.44 5.44 0 0 0 .47-2.42c0-1.51-.34-3.78-2-3.84a2.2 2.2 0 0 0-1.72 1.13 3.39 3.39 0 0 0-.48 1.92m-4.36-6.64a.88.88 0 0 1 1.75 0 .88.88 0 0 1-1.75 0m1.58 2.78v9.46c0 .73-.03 1.58-.42 2.21-.44.72-1.12 1-2 1a4.18 4.18 0 0 1-1-.12.34.34 0 0 1-.28-.3v-.61c0-.15.1-.33.28-.3a3.04 3.04 0 0 0 .72.12c1.17-.03 1.3-.82 1.3-2v-9.46a.3.3 0 0 1 .29-.27h.79a.32.32 0 0 1 .31.27M63.6 52.68a.86.86 0 1 1 .86.8.84.84 0 0 1-.86-.81m13.25.92c-2.48 0-3.6-2.53-3.6-5.06 0-2.66 1.32-4.97 3.81-4.97h.13c2.43 0 3.64 2.46 3.64 4.98 0 2.68-1.34 5.04-3.83 5.04h-.15zm.18-1.23c.82-.03 1.46-.54 1.84-1.38a5.96 5.96 0 0 0 .4-2.45 5.52 5.52 0 0 0-.51-2.63 1.89 1.89 0 0 0-3.54.23 6.26 6.26 0 0 0-.4 2.4 6.38 6.38 0 0 0 .46 2.62 2.06 2.06 0 0 0 1.75 1.2m-7.92-.04c1.11-.04 1.7-.93 1.94-2.09a.34.34 0 0 1 .32-.25h.73a.32.32 0 0 1 .32.3c-.34 1.96-1.53 3.3-3.22 3.3h-.13c-2.47 0-3.52-2.48-3.52-4.99s1.07-5.03 3.54-5.03h.13c1.7 0 2.93 1.31 3.19 3.28a.32.32 0 0 1-.3.3h-.77a.36.36 0 0 1-.3-.32c-.18-1.1-.8-1.97-1.86-2-1.67.05-2.15 2.1-2.15 3.7 0 1.52.4 3.75 2.07 3.8M27 44.61c.56.75.44 1.84.44 2.8v5.66a.33.33 0 0 1-.34.32h-1.74a.33.33 0 0 1-.32-.32v-4.75a11.32 11.32 0 0 0-.05-1.68c-.13-.6-.52-.77-1.02-.77a1.16 1.16 0 0 0-1.05.73c-.18.45-.16 1.2-.16 1.72v4.75a.33.33 0 0 1-.34.32h-1.74a.33.33 0 0 1-.32-.32v-4.75c0-1 .17-2.47-1.07-2.47s-1.21 1.44-1.21 2.47v4.75a.33.33 0 0 1-.34.32h-1.75a.33.33 0 0 1-.3-.3v-8.96a.33.33 0 0 1 .33-.32h1.62a.33.33 0 0 1 .32.3v1.17h.03c.43-1.13 1.23-1.66 2.3-1.66 1.08 0 1.77.53 2.27 1.66a2.58 2.58 0 0 1 4.42-.68zm-12.68 7.14a.33.33 0 0 1 0 .46c-.36.3-1 .85-1.34 1.17a.36.36 0 0 1-.41.04 4.24 4.24 0 0 1-1-1.18c-.97.98-1.64 1.27-2.89 1.27-1.48 0-2.62-.91-2.62-2.72a2.97 2.97 0 0 1 1.86-2.85c.95-.42 2.27-.5 3.29-.6v-.23c0-.42.03-.91-.22-1.27a1.18 1.18 0 0 0-.98-.45 1.33 1.33 0 0 0-1.4 1.05.37.37 0 0 1-.3.32l-1.7-.19a.3.3 0 0 1-.26-.36c.4-2.07 2.25-2.68 3.91-2.68.85 0 1.96.23 2.63.89.85.79.77 1.85.77 3v2.72c0 .8.34 1.17.66 1.61zm-3.11-2.64v-.38c-1.26 0-2.6.27-2.6 1.77 0 .76.4 1.27 1.07 1.27a1.41 1.41 0 0 0 1.2-.8c.34-.61.33-1.18.33-1.86zm26.01 2.64a.33.33 0 0 1 0 .46c-.35.3-.99.85-1.33 1.17a.36.36 0 0 1-.42.04 4.24 4.24 0 0 1-1-1.18c-.96.98-1.64 1.27-2.88 1.27-1.48 0-2.62-.91-2.62-2.72a2.97 2.97 0 0 1 1.87-2.85c.94-.42 2.26-.5 3.28-.6v-.23c0-.42.03-.91-.21-1.27a1.18 1.18 0 0 0-.99-.45 1.33 1.33 0 0 0-1.4 1.05.37.37 0 0 1-.3.32l-1.69-.19a.3.3 0 0 1-.26-.36c.4-2.07 2.24-2.68 3.9-2.68.86 0 1.97.23 2.64.89.85.8.77 1.85.77 3v2.73c-.01.8.33 1.16.64 1.6zm-3.1-2.64v-.38c-1.27 0-2.6.27-2.6 1.77 0 .76.38 1.27 1.06 1.27a1.42 1.42 0 0 0 1.2-.8c.35-.61.33-1.18.33-1.86zm19.91-.43c0 2.73-1.55 4.9-4 4.9-2.54 0-3.93-2.22-3.93-5.01s1.4-4.96 3.93-4.96c2.6 0 4 2.24 4 5.07zm-2.58.01a8.26 8.26 0 0 0-.26-2.37 1.1 1.1 0 0 0-1.14-.87c-1.3 0-1.37 1.76-1.37 2.85s-.02 3.43 1.35 3.43 1.42-1.88 1.42-3.04zm10.6-4.02a2.29 2.29 0 0 0-2.03-1.05c-1.21 0-1.9.59-2.38 1.81h-.04v-1.38a.33.33 0 0 0-.3-.25h-1.63a.33.33 0 0 0-.34.3v8.96a.33.33 0 0 0 .32.32h1.73a.34.34 0 0 0 .34-.32v-4.82a4 4 0 0 1 .28-1.7 1.14 1.14 0 0 1 1.02-.72c1.2 0 1.1 1.43 1.1 2.41v4.88a.33.33 0 0 0 .3.3h1.76a.33.33 0 0 0 .33-.3v-5.64c0-.87 0-2.08-.46-2.8zm-17.1 6.3a6.38 6.38 0 0 0-3.28-.7L44.64 46c.27-.38.43-.62.43-.8v-1.1a.32.32 0 0 0-.33-.33H39a.32.32 0 0 0-.33.33v1.28a.32.32 0 0 0 .33.32h3l-3.44 4.95a1.54 1.54 0 0 0-.21.88v1.3c0 .2.2.4.4.3a6.61 6.61 0 0 1 6.07 0c.22.11.43-.1.43-.3v-1.38a.59.59 0 0 0-.31-.5z"/>
  <path fill="#f90" d="M41.07 56.84c-3.28 2.42-8.03 3.7-12.13 3.7a21.95 21.95 0 0 1-14.81-5.65c-.3-.28-.04-.66.33-.44a29.83 29.83 0 0 0 14.83 3.93 29.48 29.48 0 0 0 11.3-2.31c.56-.24 1.03.36.48.77m1.37-1.56c-.42-.54-2.77-.25-3.83-.13-.33.04-.38-.24-.09-.44 1.88-1.32 4.96-.94 5.31-.5.36.44-.1 3.54-1.85 5.01-.27.23-.53.1-.4-.19.39-.99 1.28-3.2.85-3.74"/>
</svg>
