<svg xmlns="http://www.w3.org/2000/svg" viewBox="0 0 100 100">
  <circle cx="50" cy="50" r="50" fill="#fff"/>
  <g fill-rule="evenodd">
    <path fill="#f6891e" d="M46.84 57.4c-3.82 2.83-9.36 4.32-14.12 4.32-6.69 0-12.7-2.47-17.26-6.58-.36-.32-.04-.76.4-.51a34.35 34.35 0 0 0 30.44 1.89c.64-.28 1.18.42.54.89"/>
    <path fill="#f6891e" d="M48.43 55.59c-.49-.62-3.23-.3-4.46-.15-.37.05-.43-.28-.1-.52 2.2-1.53 5.78-1.09 6.2-.57.41.51-.12 4.1-2.17 5.82-.31.27-.61.12-.47-.22.46-1.16 1.5-3.73 1-4.36"/>
    <path d="M44.06 44.08v-1.5c0-.22.17-.37.38-.37h6.69c.21 0 .38.15.38.37v1.28c0 .22-.18.5-.5.94l-3.47 4.95a7.41 7.41 0 0 1 3.82.82c.26.14.33.36.35.58v1.6c0 .21-.24.47-.49.33a7.7 7.7 0 0 0-7.07.02c-.23.12-.47-.13-.47-.35v-1.51c0-.25 0-.66.25-1.03l4.01-5.76h-3.5a.37.37 0 0 1-.38-.37m-24.4 9.32h-2.03a.38.38 0 0 1-.37-.35V42.61c0-.2.18-.38.4-.38h1.9c.19.01.35.16.36.35v1.37h.04c.5-1.32 1.43-1.94 2.68-1.94 1.27 0 2.07.62 2.64 1.94A2.89 2.89 0 0 1 28.09 42c.86 0 1.79.35 2.36 1.15.64.87.5 2.15.5 3.27v6.6c0 .2-.17.37-.39.37h-2.03a.38.38 0 0 1-.36-.38v-5.54c0-.43.03-1.53-.06-1.95-.15-.7-.61-.9-1.2-.9-.5 0-1 .33-1.21.86-.21.52-.2 1.4-.2 2v5.53c0 .21-.17.38-.39.38h-2.03a.38.38 0 0 1-.36-.38v-5.54c0-1.16.18-2.87-1.26-2.87-1.46 0-1.4 1.67-1.4 2.87v5.54c0 .2-.18.38-.4.38m37.63-9.26c-1.5 0-1.6 2.05-1.6 3.32 0 1.28-.02 4 1.58 4 1.58 0 1.65-2.2 1.65-3.54 0-.88-.04-1.93-.3-2.76-.23-.73-.69-1.02-1.33-1.02M57.27 42c3.02 0 4.65 2.6 4.65 5.9 0 3.18-1.8 5.7-4.65 5.7-2.97 0-4.58-2.59-4.58-5.82 0-3.25 1.63-5.78 4.58-5.78m8.57 11.39H63.8a.38.38 0 0 1-.36-.38V42.58c.01-.2.18-.35.38-.35h1.9c.17.01.32.13.35.3v1.6h.04C66.7 42.68 67.5 42 68.9 42c.92 0 1.8.33 2.38 1.23.53.84.53 2.25.53 3.26v6.57a.38.38 0 0 1-.39.33h-2.04a.38.38 0 0 1-.36-.33V47.4c0-1.14.13-2.82-1.28-2.82-.49 0-.94.33-1.17.84a4.65 4.65 0 0 0-.32 1.98v5.62a.4.4 0 0 1-.4.38m-51.74-.03a.42.42 0 0 1-.48.05c-.67-.56-.8-.82-1.16-1.36-1.12 1.14-1.91 1.48-3.36 1.48-1.71 0-3.04-1.06-3.04-3.17 0-1.65.9-2.77 2.17-3.33 1.1-.48 2.64-.57 3.82-.7v-.27c0-.48.04-1.05-.24-1.47-.25-.38-.73-.53-1.15-.53-.77 0-1.46.4-1.63 1.22-.04.19-.17.37-.36.38l-1.97-.22c-.16-.03-.35-.17-.3-.42.45-2.4 2.61-3.12 4.55-3.12.99 0 2.28.27 3.06 1.01 1 .93.9 2.16.9 3.5v3.18c0 .95.4 1.37.77 1.88.13.19.15.4-.01.54-.42.35-1.15 1-1.56 1.36zm-2.05-4.96c0 .8.02 1.45-.38 2.16-.32.57-.83.92-1.4.92-.79 0-1.24-.6-1.24-1.47 0-1.74 1.55-2.05 3.02-2.05zm28.73 4.96a.42.42 0 0 1-.48.05c-.68-.56-.8-.82-1.17-1.36-1.12 1.14-1.9 1.48-3.35 1.48-1.72 0-3.05-1.06-3.05-3.17 0-1.65.9-2.77 2.17-3.33 1.1-.48 2.65-.57 3.83-.7v-.27c0-.48.04-1.05-.25-1.47-.25-.38-.72-.53-1.14-.53-.78 0-1.47.4-1.64 1.22-.03.19-.17.37-.35.38l-1.97-.22c-.17-.03-.36-.17-.3-.42.45-2.4 2.6-3.12 4.54-3.12 1 0 2.29.27 3.07 1.01.99.93.9 2.16.9 3.5v3.18c0 .95.39 1.37.76 1.88.13.19.16.4 0 .54-.42.35-1.16 1-1.57 1.36zm-2.05-4.96c0 .8.02 1.45-.38 2.16-.33.57-.84.92-1.41.92-.78 0-1.24-.6-1.24-1.47 0-1.74 1.55-2.05 3.03-2.05zm34.35 4.16c0-.53.44-.95 1-.95.55 0 1 .42 1 .95 0 .52-.45.95-1 .95-.56 0-1-.43-1-.95M87 46.66h5.12c.02-1.82-.84-3.37-2.5-3.42-1.56.05-2.57 1.68-2.62 3.42m-4.8 1.9v-1.8c0-.77-.1-1.56-.5-2.22a2.57 2.57 0 0 0-2.07-1.26c-.8.04-1.47.62-1.87 1.41a6.5 6.5 0 0 0-.57 2.91c0 1.8.4 4.51 2.4 4.6.82-.04 1.56-.58 2.04-1.35.45-.73.57-1.46.57-2.3m7.43-6.64c3 0 4.28 2.71 4.3 5.7 0 .17-.18.32-.35.32h-6.66c0 .89.04 1.7.4 2.54a2.75 2.75 0 0 0 2.38 1.7c1.11-.04 1.94-.74 2.38-1.85a.42.42 0 0 1 .44-.24l.9.19c.18.04.3.22.26.38a4.15 4.15 0 0 1-4.1 2.98c-3.03 0-4.5-2.7-4.5-5.83 0-3.09 1.57-5.89 4.55-5.89m-6.13 11.5h-.82c-.17 0-.35-.15-.35-.32v-1.37c-.61 1.22-1.53 1.91-2.96 1.91-1.42 0-2.34-.7-3.04-1.9a7.9 7.9 0 0 1-.9-3.93c0-2.8 1.11-5.89 4.06-5.89 1.28 0 2.05.58 2.7 1.54v-4.86c0-.17.19-.32.36-.32h.95c.18 0 .35.15.35.32v14.5c0 .17-.17.32-.35.32"/>
  </g>
</svg>
