<svg xmlns="http://www.w3.org/2000/svg" viewBox="0 0 100 100">
  <ellipse cx="49.997" cy="49.997" fill="#fff" rx="49.999" ry="49.997"/>
  <g fill-rule="evenodd">
    <path fill="#f6891e" d="M46.8433 57.4056c-3.8203 2.8194-9.3586 4.3182-14.1255 4.3182-6.683 0-12.7008-2.471-17.2565-6.5842-.3576-.3217-.0396-.7637.3917-.5122 4.913 2.859 10.9903 4.5805 17.2656 4.5805 4.2336 0 8.8879-.8787 13.1703-2.6954.6469-.2732 1.1878.426.5552.893"/>
    <path fill="#f6891e" d="M48.4326 55.5905c-.4888-.6254-3.2292-.2965-4.462-.1491-.3719.0449-.4293-.2803-.0933-.5175 2.187-1.5347 5.7683-1.0908 6.1852-.5769.4204.5175-.1097 4.1097-2.1582 5.824-.3162.2642-.6163.124-.4762-.2246.4618-1.1519 1.4933-3.7305 1.0045-4.3559"/>
    <path d="M44.0595 44.0758v-1.4915c0-.2282.1724-.3792.3773-.3792h6.6884c.2157 0 .3863.1546.3863.3774v1.2795c-.0017.2138-.1832.4941-.5031.9397l-3.4646 4.9453c1.2848-.0305 2.6452.1618 3.815.8195.2624.1473.3342.3684.354.5822v1.5921c0 .221-.239.4744-.4924.3415-2.0593-1.0783-4.7907-1.1968-7.0657.0143-.2336.1223-.4762-.1275-.4762-.3468v-1.513c0-.2426.0036-.6578.248-1.0261l4.0145-5.7594h-3.4952c-.2139 0-.3845-.1527-.3863-.3755M19.662 53.3966h-2.0341c-.1941-.0126-.3487-.1581-.3649-.3433l.0019-10.444c0-.2084.176-.3755.3917-.3755h1.8958c.1977.009.3575.16.3701.3504v1.362h.0378c.4942-1.317 1.425-1.9334 2.6775-1.9334 1.274 0 2.0719.6163 2.6416 1.9335.4923-1.3172 1.6137-1.9335 2.8105-1.9335.8553 0 1.786.3521 2.3558 1.1428.6451.8788.5122 2.1546.5122 3.2741l-.0019 6.5913c0 .2085-.1761.3756-.3918.3756h-2.0324c-.2047-.0126-.3647-.1743-.3647-.3738l-.0018-5.5382c0-.4385.0378-1.5383-.0557-1.9552-.1528-.7026-.6092-.9002-1.1968-.9002-.4941 0-1.0081.3288-1.2165.8571-.2085.5265-.1905 1.4052-.1905 1.9983v5.5364c0 .2085-.1743.3756-.3918.3756h-2.0324c-.203-.0126-.3647-.1743-.3647-.3738l-.0018-5.5382c0-1.1645.1886-2.8788-1.2543-2.8788-1.4627 0-1.4053 1.6712-1.4053 2.8788l-.0017 5.5364c0 .2085-.1744.3756-.3918.3756m37.6257-9.2522c-1.5004 0-1.5956 2.0432-1.5956 3.319 0 1.2741-.018 3.9983 1.5759 3.9983 1.5777 0 1.6532-2.1959 1.6532-3.5382 0-.8787-.0377-1.9336-.3037-2.7674-.2281-.726-.6846-1.0117-1.3298-1.0117m-.0197-2.1311c3.0207 0 4.6542 2.593 4.6542 5.8886 0 3.1878-1.8042 5.7144-4.6542 5.7144-2.9633 0-4.577-2.593-4.577-5.824 0-3.2525 1.6336-5.779 4.577-5.779m8.5708 11.3833h-2.027c-.2049-.0126-.3648-.1743-.3648-.3738l-.0036-10.4476c.0162-.1922.185-.3414.39-.3414h1.8886c.1779.009.3234.1294.3612.291v1.5976h.0378c.5696-1.4286 1.3674-2.1096 2.7727-2.1096.9128 0 1.8041.3306 2.3755 1.231.5301.8355.5301 2.2425.5301 3.2524v6.5716c-.0215.185-.1886.3288-.388.3288h-2.0414c-.187-.0126-.3396-.151-.3612-.3288v-5.6696c0-1.1427.133-2.814-1.274-2.814-.4925 0-.9489.3307-1.1771.8357-.284.636-.3217 1.274-.3217 1.9783v5.6228c-.0053.2085-.1797.3756-.397.3756m-51.7347-.0261c-.1348.1204-.3289.1293-.4816.0468-.6756-.5608-.796-.8212-1.1662-1.355-1.116 1.1375-1.9066 1.479-3.3532 1.479-1.7143 0-3.0459-1.0567-3.0459-3.1717 0-1.6515.895-2.7745 2.169-3.3262 1.1051-.4835 2.6469-.5715 3.8258-.7045v-.2642c0-.4851.0394-1.0565-.2462-1.4752-.248-.3756-.7242-.5283-1.143-.5283-.7762 0-1.4662.3971-1.6351 1.222-.036.1831-.169.3647-.354.3736l-1.9713-.2138c-.1671-.0377-.3523-.1706-.3037-.4259.4528-2.3917 2.6145-3.1141 4.55-3.1141.99 0 2.2838.2642 3.0655 1.0116.9883.9255.8932 2.1582.8932 3.5024v3.1698c0 .9543.3971 1.373.769 1.8869.1294.1851.1582.4043-.0072.539-.415.3486-1.1535.9903-1.5597 1.3532zM12.052 48.409c0 .7925.0197 1.4538-.3792 2.1582-.3235.5732-.8374.9254-1.4089.9254-.7816 0-1.238-.5947-1.238-1.4752 0-1.734 1.5543-2.0485 3.026-2.0485zm28.7268 4.9615c-.1348.1204-.3288.1293-.4817.0468-.6756-.5608-.796-.8212-1.1661-1.355-1.116 1.1375-1.9066 1.479-3.3532 1.479-1.7143 0-3.0459-1.0567-3.0459-3.1717 0-1.6515.8949-2.7745 2.169-3.3262 1.1052-.4835 2.647-.5715 3.8258-.7045v-.2642c0-.4851.0395-1.0565-.2463-1.4752-.248-.3756-.724-.5283-1.1428-.5283-.7764 0-1.4663.3971-1.6352 1.222-.036.1831-.169.3647-.354.3736l-1.9713-.2138c-.1672-.0377-.3522-.1706-.3038-.4259.4528-2.3917 2.6129-3.1141 4.55-3.1141.9902 0 2.284.2642 3.0639 1.0116.99.9255.8949 2.1582.8949 3.5024v3.1698c0 .9543.397 1.373.769 1.8869.1294.1851.1581.4043-.0072.539-.415.3486-1.1536.9903-1.5598 1.3532zm-2.0521-4.9615c0 .7925.0197 1.4538-.3792 2.1582-.3253.5732-.8375.9254-1.4089.9254-.7817 0-1.238-.5947-1.238-1.4752 0-1.734 1.5543-2.0485 3.026-2.0485zm34.3485 4.1584c0-.5248.4492-.9507 1.0009-.9507.5534 0 1.0027.4259 1.0027.9507 0 .5246-.4493.9506-1.0027.9506-.5517 0-1.001-.426-1.001-.9506m13.9316-5.912h5.1214c.018-1.8204-.841-3.364-2.4906-3.4197-1.5651.0575-2.575 1.6855-2.6308 3.4196M82.207 48.553v-1.7863c0-.7727-.0934-1.567-.4923-2.23-.4564-.7656-1.267-1.2238-2.07-1.2561-.7998.0377-1.47.6218-1.8743 1.4106-.4368.8823-.5697 1.8977-.5697 2.913 0 1.804.406 4.5103 2.3954 4.5894.8211-.036 1.565-.5769 2.0431-1.3442.4546-.7295.5678-1.4573.5678-2.2964m7.4287-6.6417c3.001 0 4.2859 2.7135 4.302 5.7.0018.1707-.176.3216-.345.3216l-6.6614.0018c0 .8842.0378 1.7.399 2.5391.442 1.0297 1.4052 1.6623 2.3827 1.6982 1.107-.0377 1.9372-.7386 2.381-1.8527.0666-.1653.275-.2695.4367-.2408l.8931.187c.1887.0449.3108.2227.2623.3863-.6342 1.8652-2.124 2.9776-4.0935 2.9776-3.0314 0-4.5068-2.692-4.5068-5.8258 0-3.0908 1.5778-5.8923 4.55-5.8923m-6.1223 11.4971h-.8213c-.1743.0018-.3503-.1527-.3521-.3216v-1.3693c-.6147 1.2273-1.5347 1.912-2.9651 1.912-1.4178 0-2.3307-.7063-3.0315-1.8976-.6649-1.1483-.911-2.5607-.911-3.9282 0-2.8033 1.1195-5.8923 4.07-5.8923 1.2796 0 2.0487.575 2.7045 1.5364v-4.8554c.0018-.1708.178-.3235.3504-.3235h.9543c.1742 0 .3504.1527.3522.3235v14.4965c-.0018.1689-.1744.3197-.3504.3197"/>
  </g>
</svg>
