<svg xmlns="http://www.w3.org/2000/svg" preserveAspectRatio="xMidYMid" viewBox="0 0 172 172">
  <path d="M111.32 111.16V41.032c0-4.019-2.217-6.237-6.236-6.237H91.363c-4.019 0-6.237 2.218-6.237 6.237v33.304c0 .938 9.037 5.293 9.273 6.214 6.885 26.902 1.496 48.433-5.031 49.438 10.672.528 11.846 5.659 3.897 2.153 1.216-14.354 5.961-14.326 19.602-.528.117.119 2.797 5.741 2.964 5.741h32.217c4.019 0 6.236-2.217 6.236-6.236v-13.721c0-4.019-2.217-6.237-6.236-6.237H111.32z" style="fill-rule:evenodd;fill:#02a9ff"/>
  <path d="m54.365 34.792-36.034 102.56h27.996l6.098-17.74h30.49l5.96 17.74h27.857L80.836 34.792H54.365zm4.435 62.09 8.731-28.412 9.563 28.412H58.8z" style="fill:#fefefe;fill-rule:evenodd"/>
</svg>