<svg xmlns="http://www.w3.org/2000/svg" xml:space="preserve" width="100" height="100" viewBox="0 0 58.593 58.593">
   <ellipse cx="29.298" cy="29.295" fill="#fff" rx="29.298" ry="29.295"/>
   <path fill="#008cff" d="M29.2990119-.0006493c-16.179285 0-29.2945469 13.116629-29.2945469 29.2965 0 16.1788945 13.1162384 29.2965 29.2945469 29.2965 16.179285 0 29.2965-13.1176055 29.2965-29.2965 0-16.179285-13.117215-29.2965-29.2965-29.2965zm.000586 10.2901027 17.3363015 10.8104085H11.962515zm17.5523143 28.0738594h-.0017578c0 1.7339621-1.4052554 3.1390223-3.1390223 3.1390223H14.8872823c-1.7339622 0-3.1390223-1.4052555-3.1390223-3.1390223V21.7883296c0-.183396.0187497-.3617141.0492181-.5369072l16.5638505 10.3285787c.0203122.0126952.0419916.0212888.0628898.0330074.0218747.0121093.04414.0238279.0664054.0349605.1169907.0603508.237497.108983.3607376.1408185.0126951.0035156.0253903.0050781.0380854.0080077.1351545.0318356.2720669.0517572.4087839.0517572h.0029296c.136717 0 .2736293-.0193357.4087838-.0517572.0126952-.003125.0253903-.004492.0380855-.0080077.1230453-.0318355.243161-.0804677.3607376-.1408185.0222653-.0111326.0445306-.0228512.0664054-.0349605.0207028-.0117186.0425775-.0203122.0628898-.0330074l16.5638505-10.3285787c.0304683.175193.049218.3531205.049218.5369072z"/>
</svg>