<svg xmlns="http://www.w3.org/2000/svg" xml:space="preserve" width="100" height="100" viewBox="0 0 58.593 58.593">
  <ellipse cx="29.298" cy="29.295" fill="#fff" rx="29.298" ry="29.295"/>
  <path fill="#008cff" d="M29.299 0C13.119 0 .004 13.115.004 29.295c0 16.179 13.117 29.296 29.295 29.296 16.18 0 29.297-13.117 29.297-29.296 0-16.18-13.118-29.297-29.297-29.297zm0 10.29L46.637 21.1H11.963zm17.553 28.073h-.002a3.139 3.139 0 0 1-3.139 3.14H14.887a3.139 3.139 0 0 1-3.139-3.14V21.788c0-.183.019-.361.05-.537L28.36 31.58c.02.013.042.021.063.033l.067.035c.117.06.237.109.36.14l.038.009c.136.032.273.052.41.052h.002c.137 0 .274-.02.409-.052l.038-.008a1.756 1.756 0 0 0 .427-.176c.02-.012.043-.02.063-.033l16.564-10.329c.03.176.05.354.05.537z"/>
</svg>
