<svg xmlns="http://www.w3.org/2000/svg" preserveAspectRatio="xMidYMid" viewBox="0 0 100 100">
   <path fill="#e9e9eb" d="M50.00064.14904C22.38934.14904 0 22.53487 0 50.14968 0 72.24137 14.32675 90.98223 34.1938 97.5956c2.4989.46286 3.41633-1.08466 3.41633-2.40534 0-1.19232-.04637-5.13093-.0679-9.3091-13.91033 3.02464-16.84552-5.8993-16.84552-5.8993-2.27452-5.77937-5.55164-7.31611-5.55164-7.31611-4.53677-3.10332.34196-3.03957.34196-3.03957 5.02116.35273 7.66495 5.1528 7.66495 5.1528 4.45943 7.64424 11.69702 5.43405 14.55057 4.1567.44876-3.23169 1.7446-5.43758 3.17454-6.68603-11.106-1.26435-22.78076-5.55163-22.78076-24.71086 0-5.45906 1.95322-9.91927 5.15162-13.42088-.51914-1.25939-2.23061-6.345.48439-13.2322 0 0 4.19888-1.34384 13.75369 5.12546 3.98833-1.10787 8.26573-1.66346 12.515-1.68248 4.24927.01904 8.53019.57461 12.52594 1.68248 9.54348-6.46923 13.7365-5.12546 13.7365-5.12546 2.72164 6.8872 1.00932 11.97281.49017 13.2322 3.20602 3.50161 5.14616 7.96182 5.14616 13.42088 0 19.20454-11.69703 23.43311-22.83115 24.67102 1.79346 1.55166 3.39149 4.59459 3.39149 9.25949 0 6.69032-.05796 12.07476-.05796 13.72166 0 1.3306.9 2.88972 3.43453 2.3987 19.85612-6.61883 34.1649-25.35501 34.1649-47.4381 0-27.6152-22.38662-50.00064-50.00065-50.00064zM18.72641 71.37651c-.11012.2484-.50094.32292-.85696.15236-.36266-.16312-.56634-.50177-.44876-.75099.10764-.25585.49927-.32706.8611-.15566.3635.16311.57048.50508.44462.7543zm2.45949 2.19456c-.23847.22108-.70462.1184-1.02092-.231-.32705-.3486-.38832-.81474-.14655-1.03916.24591-.22108.69801-.11758 1.02587.23101.32706.35273.39083.81556.14159 1.03915zm1.68732 2.8079c-.30636.21279-.80731.01323-1.11696-.43138-.30636-.44462-.30636-.97787.00662-1.1915.3105-.21362.804-.02153 1.11779.4198.30553.45208.30553.98533-.00746 1.20307zm2.8536 3.2519c-.27407.30223-.85783.22108-1.28506-.19126-.4372-.40324-.55892-.97536-.284-1.2776.27737-.30304.86442-.21776 1.29497.19127.43387.40243.56634.97869.27407 1.2776zm3.68801 1.09783c-.12089.39165-.6831.56966-1.24943.40325-.56552-.1714-.93564-.63008-.82138-1.02587.11758-.39415.68228-.57962 1.25275-.40157.5647.17057.93564.62595.81806 1.02423zm4.19693.46567c.01407.41235-.46618.75431-1.06068.76177-.59782.01324-1.08138-.32043-1.08798-.72614 0-.41649.46946-.75513 1.06728-.76509.5945-.0116 1.08138.3196 1.08138.72946zm4.1231-.15805c.0712.40243-.34196.81556-.93232.92572-.58044.10598-1.11779-.14242-1.1915-.5415-.07203-.41234.34859-.82551.92818-.93231.59118-.10267 1.12029.1391 1.19564.54813z"/>
</svg>