<svg xmlns="http://www.w3.org/2000/svg" preserveAspectRatio="xMidYMid" viewBox="0 0 100 100">
  <path fill="#e9e9eb" d="M50 .15A50 50 0 0 0 34.2 97.6c2.5.46 3.41-1.09 3.41-2.41 0-1.2-.05-5.13-.07-9.3-13.9 3.02-16.84-5.9-16.84-5.9-2.28-5.79-5.55-7.32-5.55-7.32-4.54-3.1.34-3.04.34-3.04 5.02.35 7.66 5.15 7.66 5.15 4.46 7.64 11.7 5.43 14.55 4.16.45-3.24 1.75-5.44 3.18-6.69-11.1-1.26-22.78-5.55-22.78-24.71 0-5.46 1.95-9.92 5.15-13.42-.52-1.26-2.23-6.35.48-13.23 0 0 4.2-1.35 13.76 5.12A47.92 47.92 0 0 1 50 24.33c4.25.02 8.53.57 12.53 1.68 9.54-6.47 13.73-5.12 13.73-5.12 2.73 6.88 1.01 11.97.5 13.23 3.2 3.5 5.14 7.96 5.14 13.42 0 19.2-11.7 23.43-22.83 24.67 1.8 1.55 3.39 4.6 3.39 9.26 0 6.69-.06 12.07-.06 13.72 0 1.33.9 2.9 3.44 2.4A50 50 0 0 0 50 .15zM18.73 71.38c-.11.24-.5.32-.86.15-.36-.16-.57-.5-.45-.75.1-.26.5-.33.86-.16.37.17.57.5.45.76zm2.46 2.2c-.24.21-.7.1-1.03-.24-.32-.35-.38-.81-.14-1.04.24-.22.7-.12 1.02.23.33.35.4.82.15 1.04zm1.68 2.8c-.3.21-.8.01-1.11-.43-.31-.45-.31-.98 0-1.2.31-.2.8-.02 1.12.43.3.45.3.98 0 1.2zm2.86 3.25c-.28.3-.86.22-1.29-.19-.44-.4-.56-.98-.28-1.28.28-.3.86-.22 1.3.2.43.4.56.97.27 1.27zm3.68 1.1c-.12.39-.68.57-1.24.4-.57-.17-.94-.63-.83-1.02.12-.4.69-.58 1.26-.4.56.17.93.62.81 1.02zm4.2.46c.02.42-.46.76-1.06.77-.6 0-1.08-.32-1.09-.73 0-.42.47-.76 1.07-.77.6 0 1.08.32 1.08.73zm4.12-.15c.08.4-.34.81-.93.92-.58.1-1.12-.14-1.19-.54-.07-.41.35-.82.93-.93.59-.1 1.12.14 1.2.55z"/>
</svg>
