<svg xmlns="http://www.w3.org/2000/svg" xml:space="preserve" viewBox="0 0 512 512">
    <g fill-rule="evenodd" clip-rule="evenodd">
      <path fill="#A92519" d="M256.23 512C396.81 512 512 396.81 512 256.23 512 115.184 396.81 0 256.23 0 115.184 0 0 115.184 0 256.23 0 396.81 115.184 512 256.23 512z"/>
      <path fill="#fff" d="M184.57 319.71c-36.738 5.906-55.783-12.686-61.228-45.339-4.984-30.387 3.179-64.399 24.036-76.648 13.155-7.71 32.653-8.163 45.808-2.718 29.927 11.788 37.637 57.143 48.065 88.428 11.342 33.106 34.473 61.682 70.75 67.118 26.747 3.625 53.057 3.625 78.897-1.813 18.155-3.624 36.746-17.686 39.918-40.354 9.515-61.682-49.885-65.306-80.272-73.477-30.841-8.155-23.123-34.918-5.89-42.621 7.702-3.179 23.122-2.726 30.387 0 13.593 5.437 14.952 14.959 15.857 21.764l38.559-4.531c0-3.179-.906-10.436-2.718-15.42-4.547-14.514-14.968-24.036-29.935-29.481-23.139-8.616-47.167-8.616-70.289-.906-17.233 5.898-32.2 19.498-36.277 40.363-11.343 61.673 48.51 63.938 77.538 72.563 29.935 8.608 25.403 30.388 17.686 37.184-8.608 7.249-24.028 7.702-34.918 7.702-13.608.453-28.575-1.813-40.355-9.515-36.73-22.231-32.199-81.632-60.774-120.64-34.465-46.706-130.6-44.44-157.36 10.89-10.89 22.67-14.514 51.698-10.437 79.812 4.086 28.122 17.686 47.167 34.926 58.963 27.661 19.498 96.138 17.686 117.9-8.171-3.625-7.702-9.522-24.935-12.241-34.012-7.256 6.341-18.138 17.684-37.636 20.855z"/>
    </g>
</svg>