<svg xmlns="http://www.w3.org/2000/svg" xml:space="preserve" viewBox="0 0 512 512">
  <g fill-rule="evenodd" clip-rule="evenodd">
    <path fill="#A92519" d="M256.2 512A256.6 256.6 0 0 0 512 256.2C512 115.2 396.8 0 256.2 0A256.8 256.8 0 0 0 0 256.2 256.7 256.7 0 0 0 256.2 512z"/>
    <path fill="#fff" d="M184.6 319.7c-36.8 6-55.8-12.7-61.3-45.3-5-30.4 3.2-64.4 24-76.7a56 56 0 0 1 45.9-2.7c30 11.8 37.6 57.1 48 88.4 11.4 33.1 34.5 61.7 70.8 67.2 26.7 3.6 53 3.6 78.9-1.9a49.1 49.1 0 0 0 40-40.3c9.4-61.7-50-65.3-80.4-73.5-30.8-8.1-23-35-5.8-42.6a53.2 53.2 0 0 1 30.3 0c13.6 5.4 15 15 15.9 21.7l38.6-4.5a56 56 0 0 0-2.8-15.4c-4.5-14.5-15-24-29.9-29.5a104 104 0 0 0-70.3-.9 53.3 53.3 0 0 0-36.3 40.4c-11.3 61.6 48.5 64 77.6 72.5 30 8.6 25.4 30.4 17.7 37.2-8.6 7.3-24 7.7-35 7.7a70.1 70.1 0 0 1-40.3-9.5c-36.7-22.2-32.2-81.6-60.8-120.6-34.5-46.7-130.6-44.5-157.3 10.9A141.7 141.7 0 0 0 81.6 282a83 83 0 0 0 35 59c27.6 19.4 96 17.6 117.8-8.2-3.6-7.7-9.5-25-12.2-34-7.3 6.3-18.1 17.6-37.6 20.8z"/>
  </g>
</svg>
