<svg xmlns="http://www.w3.org/2000/svg" viewBox="0 0 127 144">
  <path fill="#eb743b" d="M66.33 1.24V142.3l59.52-34.29V35.52z"/>
  <path fill="#ba478f" d="m61.45 60.01-.97-.98v-4.9l.97-.97V41.4h-.97V20.83l.97-.98V1.24L1.93 35.52v72.5l59.52 34.28z"/>
  <path d="M61.43 53.2 35.1 68.87V57.46l26.34-15.88V19.45L29.7 38.33h-.06a2.7 2.71 0 0 0-.25.2l-.2.16a2.83 2.84 0 0 0-.2.21l-.17.22a2.46 2.47 0 0 0-.14.24 2.73 2.74 0 0 0-.13.25c0 .09-.07.18-.1.27a2.7 2.7 0 0 0-.08.27 2.5 2.5 0 0 0 0 .26 2.93 2.94 0 0 0 0 .32v49.65a10.73 10.78 0 0 0-7.8 1.96c-4.73 3.15-6.33 9.1-3.9 12.74s7.99 3.82 12.68.66c2.7-1.8 5.25-3.99 5.85-6.54a10.35 10.4 0 0 0 0-1.96V75.69l26.35-15.82z" opacity=".07"/>
  <path fill="#9d356d" d="M61.45 56.1 35.11 71.77V60l26.34-15.67V21.81L29.73 41.1h-.06a2.7 2.71 0 0 0-.25.2l-.2.16a2.81 2.82 0 0 0-.2.22c-.05.06-.12.13-.17.21a2.47 2.48 0 0 0-.14.25c0 .07-.1.15-.13.24l-.1.28a2.71 2.72 0 0 0-.08.26 2.5 2.52 0 0 0 0 .26 2.93 2.94 0 0 0 0 .32v49.65a10.73 10.78 0 0 0-7.8 1.96c-4.73 3.16-6.33 9.1-3.9 12.74 2.41 3.64 7.99 3.82 12.68.66 2.7-1.8 5.25-3.98 5.85-6.54a10.35 10.4 0 0 0 0-1.96V78.64l26.35-15.68z"/>
  <path fill="#fffedb" d="M61.45 53.16 35.11 68.83V57.08L61.45 41.4V18.87L29.7 38.33h-.06a2.7 2.71 0 0 0-.25.2l-.2.16a2.83 2.84 0 0 0-.2.21l-.17.22a2.46 2.47 0 0 0-.14.24 2.73 2.74 0 0 0-.13.25c0 .09-.07.18-.1.27a2.7 2.7 0 0 0-.08.27 2.5 2.5 0 0 0 0 .26 2.93 2.94 0 0 0 0 .32v49.65a10.73 10.78 0 0 0-7.8 1.96c-4.73 3.15-6.33 9.1-3.9 12.74 2.41 3.64 7.99 3.82 12.68.66 2.7-1.8 5.25-3.99 5.85-6.54a10.35 10.4 0 0 0 0-1.96V75.69L61.55 60z"/>
  <g opacity=".07">
    <path d="M83.22 91.1a2.06 2.07 0 1 1-.22 1.57 2.05 2.06 0 0 1 .22-1.56zm12.3 21.91a2.03 2.04 0 0 1-1.34.5 2.06 2.07 0 0 1-1.35-3.64 2.03 2.04 0 0 1 1.34-.5 2.07 2.08 0 0 1 2.06 2.23 2.04 2.05 0 0 1-.71 1.41zm-20.4-67.09h.2zm11.1 9.45a2.02 2.03 0 0 1 .65-.65 2.06 2.07 0 1 1 1.08 3.83 2.05 2.06 0 0 1-1.09-.32 2.08 2.09 0 0 1-.64-2.86zm6.22-19.78a2.09 2.1 0 0 1-2.84.64l-.1-.06a2.06 2.07 0 1 1 3.22-2.12 2.03 2.04 0 0 1-.28 1.54zm16.36 11.37a2.06 2.07 0 1 1 3.5 2.21 2.09 2.1 0 0 1-2.85.64l-.09-.06a2.05 2.06 0 0 1-.55-2.8zm0 22.98a2.06 2.07 0 1 1 3.5 2.21 2.09 2.1 0 0 1-2.85.64l-.09-.06a2.05 2.06 0 0 1-.55-2.74zm0 25.76a2.06 2.07 0 1 1 3.5 2.21 2.09 2.1 0 0 1-2.85.64l-.09-.06a2.06 2.07 0 0 1-.55-2.78z"/>
    <path d="M98.7 105.18a5.97 6 0 0 0-10.45 4.65 19.38 19.45 0 0 1-5.2 1.3 3.9 3.92 0 0 1-2.17-.98 10.45 10.5 0 0 0-4.05-1.81 36.73 36.87 0 0 0 8.38-12.55 5.97 6 0 1 0-5.34-9.05 5.97 6 0 0 0 1.58 7.9c-3.96 9.02-9 12.8-12.27 14.37a1.95 1.96 0 0 0-.35.17 10.99 11.03 0 0 1-2.5.8v3.91a12.29 12.33 0 0 0 4.15-1.16c5.22-1.34 6.67-.35 8.2.7a7.69 7.72 0 0 0 4.16 1.62h.3a23.04 23.13 0 0 0 6.83-1.69 5.98 6 0 0 0 4.21 1.69 5.97 6 0 0 0 4.53-9.9zM83.23 88.75A2.06 2.07 0 1 1 83 90.3a2.05 2.06 0 0 1 .22-1.56zm12.3 21.9a2.03 2.04 0 0 1-1.34.5 2.06 2.07 0 0 1-1.35-3.65 2.03 2.04 0 0 1 1.34-.5 2.07 2.08 0 0 1 2.06 2.24 2.04 2.05 0 0 1-.71 1.4zM75.12 43.54h.2zM96.53 30.8a5.97 6 0 1 0-10.73 4.72 13.03 13.08 0 0 1-9.7 4.2 28.44 28.56 0 0 0-9.76-2.27v3.92a24.2 24.3 0 0 1 8.53 2.17 21.07 21.15 0 0 1 8.4 6.85 6.17 6.2 0 0 0-.37.53 5.97 6 0 1 0 8.25-1.87 6.07 6.1 0 0 0-4.56-.73 25.37 25.47 0 0 0-5.21-5.46 15.95 16.02 0 0 0 7.59-5 6 6.02 0 0 0 1.73.27 5.98 6 0 0 0 5.85-7.3zM86.22 53.01a2.02 2.03 0 0 1 .65-.65 2.06 2.07 0 1 1 1.08 3.83 2.05 2.06 0 0 1-1.09-.32 2.08 2.09 0 0 1-.64-2.86zm6.22-19.78a2.09 2.1 0 0 1-2.84.64l-.1-.06a2.06 2.07 0 1 1 3.22-2.13 2.03 2.04 0 0 1-.28 1.56z"/>
    <path d="M105.02 70.97a5.85 5.88 0 0 0 2.06 2.6l.27.18a5.97 6 0 1 0 3.2-11.06h-.37a25.1 25.2 0 0 1 0-11.03h.33a5.97 6 0 1 0-4.04-1.6l.06.06a27.96 28.07 0 0 0 0 14.13c-.13.12-.28.24-.42.39a6.09 6.11 0 0 0-.61.8 6.01 6.03 0 0 0-.7 1.55 14.83 14.89 0 0 0-6.6 2.72c-1.96 1.3-3.91 2.52-9.42 2.62a31.85 31.97 0 0 0-5.23-.12c-1.4.05-2.84.1-4.73 0-1.3-.07-2.05-.86-3.37-2.37-1.76-2-4.12-4.56-9.15-4.9v3.92c3.21.3 4.69 1.85 6.2 3.6s3.1 3.54 6.12 3.7c2.07.1 3.67.05 5.08 0a23.63 23.73 0 0 1 7.66.68c2.55.63 11.8 9.48 14.41 14.03l-.3.42a5.95 5.98 0 0 0 1.58 8.08l.27.19a5.97 6 0 1 0 3.2-11.06 6.03 6.05 0 0 0-1.5.2c-2.5-4.1-8.45-10.25-12.88-13.51a17.74 17.8 0 0 0 4.11-2.15 11.04 11.08 0 0 1 4.77-2.07zm3.79-26.37a2.06 2.07 0 1 1 3.48 2.2 2.09 2.1 0 0 1-2.84.65l-.09-.06a2.05 2.06 0 0 1-.55-2.78zm0 22.98a2.06 2.07 0 1 1 3.48 2.21 2.09 2.1 0 0 1-2.84.64l-.09-.06a2.05 2.06 0 0 1-.55-2.78zm0 25.76a2.06 2.07 0 1 1 3.48 2.21 2.09 2.1 0 0 1-2.84.64l-.09-.06a2.06 2.07 0 0 1-.55-2.78z"/>
  </g>
  <g stroke-width=".99">
    <path fill="#d3562c" d="M98.7 108.12a5.97 6 0 0 0-10.45 4.65 19.38 19.45 0 0 1-5.2 1.3 3.9 3.92 0 0 1-2.17-.98 10.45 10.5 0 0 0-4.05-1.81A36.73 36.87 0 0 0 85.2 98.7a5.97 6 0 1 0-5.34-9.05 5.97 6 0 0 0 1.58 7.9c-3.96 9.02-9 12.8-12.27 14.37a1.95 1.96 0 0 0-.35.17 10.99 11.03 0 0 1-2.5.8v3.91a12.29 12.33 0 0 0 4.15-1.16c5.22-1.34 6.67-.35 8.2.7a7.69 7.72 0 0 0 4.17 1.64h.3a23.04 23.13 0 0 0 6.83-1.69 5.98 6 0 0 0 4.21 1.69 5.97 6 0 0 0 4.53-9.9zM83.23 91.68a2.06 2.07 0 1 1-.22 1.57 2.05 2.06 0 0 1 .22-1.57zm12.3 21.9a2.03 2.04 0 0 1-1.34.5 2.06 2.07 0 0 1-1.35-3.64 2.03 2.04 0 0 1 1.34-.5 2.07 2.08 0 0 1 2.06 2.24 2.04 2.05 0 0 1-.71 1.4z"/>
    <path d="M75.12 45.92h.2z"/>
    <path fill="#d3562c" d="M96.53 33.74a5.97 6 0 1 0-10.73 4.72 13.03 13.08 0 0 1-9.7 4.2 28.44 28.56 0 0 0-9.76-2.27v3.92a24.2 24.3 0 0 1 8.53 2.17 21.07 21.15 0 0 1 8.4 6.85 6.17 6.2 0 0 0-.37.53A5.97 6 0 1 0 91.15 52a6.07 6.1 0 0 0-4.56-.73 25.37 25.47 0 0 0-5.21-5.46 15.95 16.02 0 0 0 7.59-5 6 6.02 0 0 0 1.73.27 5.98 6 0 0 0 5.85-7.3zM86.22 55.96a2.02 2.03 0 0 1 .65-.65 2.06 2.07 0 1 1 1.08 3.83 2.05 2.06 0 0 1-1.09-.32 2.08 2.09 0 0 1-.64-2.86zm6.22-19.78a2.09 2.1 0 0 1-2.84.64l-.1-.06a2.06 2.07 0 1 1 3.22-2.13 2.03 2.04 0 0 1-.28 1.55z"/>
    <path fill="#d3562c" d="M105.02 73.9a5.85 5.88 0 0 0 2.06 2.6l.27.19a5.97 6 0 1 0 3.2-11.06h-.37a25.1 25.2 0 0 1 0-11.03h.33a5.97 6 0 1 0-4.04-1.6l.06.06a27.96 28.07 0 0 0 0 14.12c-.13.13-.28.25-.42.4a6.09 6.11 0 0 0-.61.8 6.01 6.03 0 0 0-.7 1.55 14.83 14.89 0 0 0-6.6 2.72c-1.96 1.3-3.91 2.52-9.42 2.62a31.85 31.97 0 0 0-5.23-.12c-1.4.05-2.84.1-4.73 0-1.3-.07-2.05-.86-3.37-2.37-1.76-2.01-4.12-4.56-9.15-4.9v3.92c3.21.3 4.69 1.85 6.2 3.6 1.53 1.74 3.1 3.54 6.12 3.7 2.07.1 3.67.05 5.08 0a23.63 23.73 0 0 1 7.66.68c2.55.63 11.8 9.47 14.41 14.03-.1.14-.21.27-.3.42a5.95 5.98 0 0 0 1.58 8.08l.27.19a5.97 6 0 1 0 3.2-11.06 6.03 6.05 0 0 0-1.5.2c-2.5-4.1-8.45-10.25-12.88-13.51a17.74 17.8 0 0 0 4.11-2.15 11.04 11.08 0 0 1 4.77-2.08zm3.79-26.37a2.06 2.07 0 1 1 3.48 2.22 2.09 2.1 0 0 1-2.84.63l-.09-.05a2.05 2.06 0 0 1-.55-2.79zm0 22.99a2.06 2.07 0 1 1 3.48 2.2 2.09 2.1 0 0 1-2.84.65l-.09-.06a2.05 2.06 0 0 1-.55-2.78zm0 25.76a2.06 2.07 0 1 1 3.48 2.21 2.09 2.1 0 0 1-2.84.64l-.09-.06a2.06 2.07 0 0 1-.55-2.78z"/>
    <path fill="#fffedb" d="M98.7 105.18a5.97 6 0 0 0-10.45 4.65 19.38 19.45 0 0 1-5.2 1.3 3.9 3.92 0 0 1-2.17-.98 10.45 10.5 0 0 0-4.05-1.81 36.73 36.87 0 0 0 8.38-12.55 5.97 6 0 1 0-5.34-9.05 5.97 6 0 0 0 1.58 7.9c-3.96 9.02-9 12.8-12.27 14.37a1.95 1.96 0 0 0-.35.17 10.99 11.03 0 0 1-2.5.8v3.91a12.29 12.33 0 0 0 4.15-1.16c5.22-1.34 6.67-.35 8.2.7a7.69 7.72 0 0 0 4.16 1.62h.3a23.04 23.13 0 0 0 6.83-1.69 5.98 6 0 0 0 4.21 1.69 5.97 6 0 0 0 4.53-9.9zM83.23 88.75A2.06 2.07 0 1 1 83 90.3a2.05 2.06 0 0 1 .22-1.56zm12.3 21.9a2.03 2.04 0 0 1-1.34.5 2.06 2.07 0 0 1-1.35-3.65 2.03 2.04 0 0 1 1.34-.5 2.07 2.08 0 0 1 2.06 2.24 2.04 2.05 0 0 1-.71 1.4zM75.12 43.54h.2zM96.53 30.8a5.97 6 0 1 0-10.73 4.72 13.03 13.08 0 0 1-9.7 4.2 28.44 28.56 0 0 0-9.76-2.27v3.92a24.2 24.3 0 0 1 8.53 2.17 21.07 21.15 0 0 1 8.4 6.85 6.17 6.2 0 0 0-.37.53 5.97 6 0 1 0 8.25-1.87 6.07 6.1 0 0 0-4.56-.73 25.37 25.47 0 0 0-5.21-5.46 15.95 16.02 0 0 0 7.59-5 6 6.02 0 0 0 1.73.27 5.98 6 0 0 0 5.85-7.3zM86.22 53.01a2.02 2.03 0 0 1 .65-.65 2.06 2.07 0 1 1 1.08 3.83 2.05 2.06 0 0 1-1.09-.32 2.08 2.09 0 0 1-.64-2.86zm6.22-19.78a2.09 2.1 0 0 1-2.84.64l-.1-.06a2.06 2.07 0 1 1 3.22-2.13 2.03 2.04 0 0 1-.28 1.56z"/>
    <path fill="#fffedb" d="M105.02 70.97a5.85 5.88 0 0 0 2.06 2.6l.27.18a5.97 6 0 1 0 3.2-11.06h-.37a25.1 25.2 0 0 1 0-11.03h.33a5.97 6 0 1 0-4.04-1.6l.06.06a27.96 28.07 0 0 0 0 14.13c-.13.12-.28.24-.42.39a6.09 6.11 0 0 0-.61.8 6.01 6.03 0 0 0-.7 1.55 14.83 14.89 0 0 0-6.6 2.72c-1.96 1.3-3.91 2.52-9.42 2.62a31.85 31.97 0 0 0-5.23-.12c-1.4.05-2.84.1-4.73 0-1.3-.07-2.05-.86-3.37-2.37-1.76-2-4.12-4.56-9.15-4.9v3.92c3.21.3 4.69 1.85 6.2 3.6 1.53 1.74 3.1 3.54 6.12 3.7 2.07.1 3.67.05 5.08 0a23.63 23.73 0 0 1 7.66.68c2.55.63 11.8 9.48 14.41 14.03l-.3.42a5.95 5.98 0 0 0 1.58 8.08l.27.19a5.97 6 0 1 0 3.2-11.06 6.03 6.05 0 0 0-1.5.2c-2.5-4.1-8.45-10.25-12.88-13.51a17.74 17.8 0 0 0 4.11-2.15 11.04 11.08 0 0 1 4.77-2.07zm3.79-26.37a2.06 2.07 0 1 1 3.48 2.2 2.09 2.1 0 0 1-2.84.65l-.09-.06a2.05 2.06 0 0 1-.55-2.78zm0 22.98a2.06 2.07 0 1 1 3.48 2.21 2.09 2.1 0 0 1-2.84.64l-.09-.06a2.05 2.06 0 0 1-.55-2.78zm0 25.76a2.06 2.07 0 1 1 3.48 2.21 2.09 2.1 0 0 1-2.84.64l-.09-.06a2.06 2.07 0 0 1-.55-2.78z"/>
  </g>
</svg>
