<svg xmlns="http://www.w3.org/2000/svg" width="100" height="100">
   <defs>
     <linearGradient id="a" x1="116.68872" x2="116.68872" y1="0" y2="232.87497" gradientTransform="matrix(.4286 0 0 .42906 .08561462 .08362018)" gradientUnits="userSpaceOnUse">
       <stop offset="0" stop-color="#111D2E"/>
       <stop offset=".21248" stop-color="#051839"/>
       <stop offset=".40695" stop-color="#0A1B48"/>
       <stop offset=".5811" stop-color="#132E62"/>
       <stop offset=".7376" stop-color="#144B7E"/>
       <stop offset=".87279" stop-color="#136497"/>
       <stop offset="1" stop-color="#1387B8"/>
     </linearGradient>
   </defs>
   <path d="M2.1830438 64.411758C8.3551316 84.999679 27.447736 100 50.044276 100c27.590643 0 49.958184-22.367547 49.958184-49.95819 0-27.591071-22.367541-49.95818909-49.958184-49.95818909C23.568151.08362091 1.9043072 20.679689.19329276 46.7227 3.4262523 52.151633 4.6878146 55.509337 2.1835154 64.411758Z" style="fill:url(#a);stroke-width:.42882565"/>
   <path d="M47.47085 37.529536c0 .08405 0 .168098.0043.247003L35.250177 55.535067c-1.980318-.09006-3.967496.257295-5.851755 1.03347-.830636.338772-1.608954.754734-2.339245 1.235018L.21511998 46.752718c.00021013 0-.62115397 10.218915 1.96745212 17.834859l18.9772509 7.830357c.95285 4.258238 3.874011 7.99331 8.183709 9.790089 7.05118 2.946033 15.181286-.411672 18.114453-7.465854.763309-1.843951 1.119236-3.777955 1.067777-5.70767L66.01756 56.53423c.141513.0043.287313.0085.428825.0085 10.467635 0 18.975537-8.53363 18.975537-19.013272 0-10.4805-8.507902-19.006412-18.975537-19.006412-10.463345 0-18.975535 8.525912-18.975535 19.006412zm-2.933167 35.986191c-2.270204 5.450374-8.533631 8.036194-13.978002 5.767705-2.511631-1.046335-4.407898-2.963185-5.501833-5.248825l6.177234 2.560089c4.015095 1.672419 8.62154-.231566 10.290529-4.245375 1.674135-4.018096-.225134-8.63226-4.238084-10.304681l-6.385642-2.645854c2.464032-.934839 5.265121-.969146 7.882244.120071 2.638564 1.097794 4.685778 3.164734 5.770707 5.8063 1.084928 2.641566 1.080641 5.557581-.01715 8.19057m21.908699-23.319539c-6.968417 0-12.641779-5.68194-12.641779-12.666652 0-6.979138 5.673362-12.662794 12.641779-12.662794 6.972706 0 12.64607 5.683656 12.64607 12.662794 0 6.984712-5.673364 12.666652-12.64607 12.666652m-9.472758-12.68595c0-5.2544 4.253951-9.51607 9.4942-9.51607 5.244538 0 9.498488 4.26167 9.498488 9.51607 0 5.254829-4.25395 9.512639-9.498488 9.512639-5.240249 0-9.4942-4.25781-9.4942-9.512639z" style="fill:#fff;stroke-width:.42882565"/>
</svg>