<svg xmlns="http://www.w3.org/2000/svg" width="100" height="100">
  <defs>
    <linearGradient id="a" x1="116.689" x2="116.689" y1="0" y2="232.875" gradientTransform="matrix(.4286 0 0 .42906 .086 .084)" gradientUnits="userSpaceOnUse">
      <stop offset="0" stop-color="#111D2E"/>
      <stop offset=".212" stop-color="#051839"/>
      <stop offset=".407" stop-color="#0A1B48"/>
      <stop offset=".581" stop-color="#132E62"/>
      <stop offset=".738" stop-color="#144B7E"/>
      <stop offset=".873" stop-color="#136497"/>
      <stop offset="1" stop-color="#1387B8"/>
    </linearGradient>
  </defs>
  <path d="M2.183 64.412C8.355 85 27.448 100 50.044 100c27.59 0 49.958-22.368 49.958-49.958C100.002 22.45 77.635.084 50.044.084 23.568.084 1.904 20.68.194 46.723c3.232 5.429 4.494 8.786 1.99 17.689Z" style="fill:url(#a);stroke-width:.42882565"/>
  <path d="M47.47 37.53c0 .084 0 .168.005.247L35.25 55.535c-1.98-.09-3.967.257-5.852 1.034a13.5 13.5 0 0 0-2.339 1.235L.215 46.753s-.621 10.219 1.968 17.835l18.977 7.83c.953 4.258 3.874 7.993 8.184 9.79 7.05 2.946 15.18-.412 18.114-7.466a13.915 13.915 0 0 0 1.068-5.708l17.492-12.5c.141.005.287.009.428.009 10.468 0 18.976-8.534 18.976-19.014 0-10.48-8.508-19.006-18.976-19.006-10.463 0-18.975 8.526-18.975 19.006zm-2.932 35.986c-2.27 5.45-8.534 8.036-13.978 5.767a10.626 10.626 0 0 1-5.502-5.248l6.177 2.56a7.868 7.868 0 0 0 10.29-4.246c1.675-4.018-.225-8.632-4.237-10.304l-6.386-2.646a10.623 10.623 0 0 1 7.882.12 10.61 10.61 0 0 1 5.77 5.806 10.654 10.654 0 0 1-.016 8.19m21.908-23.319c-6.968 0-12.641-5.682-12.641-12.666 0-6.98 5.673-12.663 12.641-12.663 6.973 0 12.646 5.683 12.646 12.663 0 6.984-5.673 12.666-12.646 12.666M56.974 37.51c0-5.254 4.254-9.516 9.494-9.516 5.244 0 9.498 4.262 9.498 9.516 0 5.255-4.254 9.513-9.498 9.513-5.24 0-9.494-4.258-9.494-9.513z" style="fill:#fff;stroke-width:.42882565"/>
</svg>
