<svg xmlns="http://www.w3.org/2000/svg" viewBox="0 0 100 100">
  <g data-name="twitter circle" transform="translate(-126.4 -2.3)">
    <circle cx="50" cy="50" r="50" fill="#2daae1" data-name="Ellipse 1" transform="translate(126.4 2.3)"/>
    <path fill="#fff" d="M209.2 32a26.5 26.5 0 0 1-7.7 2 13.6 13.6 0 0 0 5.9-7.5 26.6 26.6 0 0 1-8.5 3.3 13.3 13.3 0 0 0-9.8-4.2A13.5 13.5 0 0 0 175.7 39a13.8 13.8 0 0 0 .4 3 38 38 0 0 1-27.7-14 13.7 13.7 0 0 0 4.2 18 13.2 13.2 0 0 1-6-1.7v.2a13.5 13.5 0 0 0 10.7 13.3 13.2 13.2 0 0 1-3.6.4 13.5 13.5 0 0 1-2.5-.2 13.4 13.4 0 0 0 12.5 9.4 26.8 26.8 0 0 1-19.8 5.6 37.6 37.6 0 0 0 20.5 6.1 38 38 0 0 0 38.1-38.5v-1.8a27.5 27.5 0 0 0 6.7-7Z" data-name="Path 1"/>
  </g>
</svg>
