<svg xmlns="http://www.w3.org/2000/svg" version="1.0" viewBox="0 0 180 180">
  <circle cx="90" cy="90" r="90" fill="#fff"/>
  <g font-family="Times New Roman" font-size="178.2" font-weight="400">
    <path d="M122.9 58v2a13 13 0 0 0-6.4 2.7 24.3 24.3 0 0 0-6.2 8.7L77.6 138h-2.1L42.7 70.5C41 67 39 65 38.4 64.2c-1-1.2-2.2-2.2-3.6-2.9A17 17 0 0 0 29 60v-2h32v2c-3.7.4-5.5 1-6.6 1.9-1 .9-1.6 2-1.6 3.4 0 2 .9 5 2.7 9l24.2 46 23.7-45.4c1.8-4.5 3.4-7.6 3.4-9.3 0-1.1-.6-2.2-1.7-3.2a8.9 8.9 0 0 0-5.2-2.2l-1-.2v-2z"/>
    <path d="M151 58v2a13 13 0 0 0-6.4 2.7 24.3 24.3 0 0 0-6.2 8.7L109.8 138h-2.2L77.3 70.5C75.7 67 73.7 65 73 64.2c-1-1.2-2-2.2-3.6-2.9a17 17 0 0 0-5.1-1.3v-2h31.3v2c-3.7.4-5.5 1-6.6 1.9-1 .9-1.6 2-1.6 3.4 0 2 .9 5 2.7 9l21.7 46 19.7-45.4c1.8-4.5 3.4-7.6 3.4-9.3 0-1.1-.6-2.2-1.7-3.2-1.2-1-3-1.8-5.8-2.2l-1-.2v-2z"/>
  </g>
</svg>
