<svg xmlns="http://www.w3.org/2000/svg" xml:space="preserve" width="100" height="100">
   <circle cx="49.999058" cy="50.001949" r="49.999058" style="fill:#d42428;stroke-width:.21099676"/>
   <path d="M85.351985 14.641847c19.525855 19.527538 19.527535 51.186335 0 70.713874-19.525851 19.525849-51.186335 19.526689-70.713874 0z" style="fill:#cc202d;stroke-width:.21099676"/>
   <path d="M98.992922 60.015855 74.246803 35.270577l-29.185492 3.322988-17.653888 27.330832 32.987654 32.986809C79.7899 94.808376 95.03758 79.466802 98.992922 60.015855Z" style="fill:#ba202e;stroke-width:.21099676"/>
   <path d="M76.163709 40.353489c0-4.191451-3.395571-7.588709-7.5847-7.588709H32.993985c-4.188286 0-7.583223 3.398102-7.583223 7.588709V60.70286c0 4.191451 3.39557 7.588709 7.583223 7.588709h35.584391c4.189973 0 7.5847-3.398102 7.5847-7.588709V40.353489ZM45.710337 59.112788V39.999859l14.494422 9.556886z" style="fill:#fff;stroke-width:.21099676"/>
</svg>