<svg xmlns="http://www.w3.org/2000/svg" xml:space="preserve" width="100" height="100">
  <circle cx="50" cy="50" r="50" style="fill:#d42428;stroke-width:.21099676"/>
  <path d="M85.35 14.64a50 50 0 0 1-70.71 70.72z" style="fill:#cc202d;stroke-width:.21099676"/>
  <path d="M99 60.02 74.24 35.27 45.06 38.6 27.41 65.92l32.99 33A50.06 50.06 0 0 0 99 60.01Z" style="fill:#ba202e;stroke-width:.21099676"/>
  <path d="M76.16 40.35c0-4.19-3.4-7.59-7.58-7.59H32.99a7.59 7.59 0 0 0-7.58 7.6V60.7c0 4.2 3.4 7.6 7.58 7.6h35.59c4.19 0 7.58-3.4 7.58-7.6V40.35ZM45.71 59.11V40l14.5 9.56z" style="fill:#fff;stroke-width:.21099676"/>
</svg>
