<svg xmlns="http://www.w3.org/2000/svg" viewBox="0 0 220 220">
  <g style="fill:#4a90d9;fill-opacity:1;fill-rule:nonzero">
    <g style="mix-blend-mode:normal;fill:#4a90d9;fill-opacity:1;fill-rule:nonzero">
      <path d="M474.6 255.1v151.2l-131 75.6V330.7zm-131 75.6V179.5l-130.8 75.6Z" style="fill:#4a90d9;fill-opacity:1;fill-rule:nonzero;stroke:none;stroke-width:1px;stroke-linecap:butt;stroke-linejoin:miter;stroke-opacity:1" transform="matrix(.654 0 0 .654 -114.6 -106.1)"/>
      <path d="M218.6 233.3a43.7 43.7 0 0 0-21.8 37.8v119.2a43.7 43.7 0 0 0 21.8 37.9l103.2 59.5a43.7 43.7 0 0 0 43.7 0l103.3-59.5a43.7 43.7 0 0 0 21.8-37.9V271.1a43.7 43.7 0 0 0-21.8-37.8l-103.3-59.6a43.7 43.7 0 0 0-43.7 0zm131-32L452.7 261a11.8 11.8 0 0 1 5.8 10.1v119.2c0 4.2-2.2 8-5.8 10.1L349.5 460a11.8 11.8 0 0 1-11.7 0l-103.2-59.6a11.8 11.8 0 0 1-5.8-10.1V271.1c0-4.1 2.2-8 5.8-10.1l103.2-59.6a11.8 11.8 0 0 1 11.7 0z" style="fill:#4a90d9;fill-opacity:1;fill-rule:nonzero;stroke:none;stroke-width:82.9362;stroke-linecap:round;stroke-linejoin:round;stroke-dasharray:none;stroke-opacity:1" transform="matrix(.654 0 0 .654 -114.6 -106.1)"/>
    </g>
  </g>
</svg>
