<svg xmlns="http://www.w3.org/2000/svg" fill="none" viewBox="0 0 29 29">
  <path fill="#c02223" d="M19.66.81 5.6 3.91a3.1 3.1 0 0 0-2.44 3.03v17.84a2.5 2.5 0 0 0 2.2 2.48l7.37.97 6.49-6.47 6.59-6.74L25.7 4.8a1.97 1.97 0 0 0-2.38-1.9l-1.63.35v-.78A1.69 1.69 0 0 0 19.66.81Z"/>
  <path fill="#882425" d="M21.7 3.26v16.19L25.84 15l-.11-10.55a1.69 1.69 0 0 0-2.05-1.63Z"/>
  <path fill="url(#a)" d="m12.74 28.23 11.03-2.88 2.06-10.34Z" style="fill:url(#a)"/>
  <path fill="url(#b)" d="M16.02 12.17s-1.26-1.64-2.19-2.08a2.6 2.6 0 0 0-2.16-.04c-1.02.5-1.13 1.94-.2 2.5a3 3 0 0 0 .91.35c2.08.48 5.5 1.47 5.08 5.45 0 0-.23 3.72-4.16 4.15a6.23 6.23 0 0 1-2.07-.13 12.7 12.7 0 0 1-3.38-1.13L7.7 17h.4s.78 1.9 3 2.8c.41.17.86.24 1.3.17a1.7 1.7 0 0 0 1.47-1.28s.44-1.3-1.86-2.02c-1.85-.58-3.59-1.17-4.3-3.12a5.12 5.12 0 0 1-.17-2.92 5.14 5.14 0 0 1 3.65-3.84s3.24-.88 5.47.3l-.1 5.09z" style="fill:url(#b)"/>
  <defs>
    <linearGradient id="a" x1="18.49" x2="19.44" y1="28.25" y2="20.29" gradientUnits="userSpaceOnUse">
      <stop stop-color="#DCF1F3"/>
      <stop offset="1" stop-color="#C2C2C9"/>
    </linearGradient>
    <linearGradient id="b" x1="11.79" x2="13.3" y1="24.11" y2="2.85" gradientUnits="userSpaceOnUse">
      <stop stop-color="#DCF1F3"/>
      <stop offset="1" stop-color="#C2C2C9"/>
    </linearGradient>
  </defs>
</svg>
