<svg xmlns="http://www.w3.org/2000/svg" xml:space="preserve" viewBox="0 0 300 343.7">
  <path fill="#c9781f" d="M45.4 135s24.7-21.4 97.7-21.4c67 0 85.8 15.2 105 21.5l-99.8 48.7z"/>
  <g transform="matrix(.64 0 0 .64 -41 -104.9)">
    <path fill="#f6d2a2" d="M119 476.5c.7 14.5 15.2 7.8 21.8 3.2 6.3-4.3 8.1-.7 8.6-9.2.4-5.6 1-11.3.7-16.9a41.3 41.3 0 0 0-27.5 7c-4 3-11.5 12.2-3.7 15.9"/>
    <path fill="#c6b198" d="M119 476.5c2-.8 4.3-1.4 5.8-3.3"/>
    <path fill="#37abc8" d="M152.6 302.9c-55.8-15.7-14.3-86.7 30.5-57.5zM400.4 240c44.2-31 84.1 39 32.8 56.6z"/>
    <path fill="#f6d2a2" d="M410 655.8c11.1 7 31.6 28 14.8 38.1-16.1 14.8-25.2-16.2-39.4-20.6 6.1-8.2 13.9-15.8 24.5-17.5z"/>
    <path fill="none" d="M424.8 693.9c-2.5-5-3.3-10.7-7.5-14.7"/>
    <path fill="#f6d2a2" d="M209.6 679.5c-13.2 2-20.6 14-31.6 20-10.3 6.1-14.3-2-15.2-3.7-1.6-.7-1.5.7-4-1.8-9.6-15.1 10-26.2 20.2-33.7 14.2-2.9 23 9.4 30.6 19.2z"/>
    <path fill="none" d="M162.8 695.8c.5-5.7 5-9.6 7.2-14.5"/>
    <path fill="#077e91" d="M155 283.3c-7.4-4-12.8-9.2-8.3-17.7 4.1-8 11.9-7 19.2-3.2zm266.6-7.4c7.3-4 12.7-9.2 8.2-17.7-4.2-8-11.9-7-19.3-3.2z"/>
    <path fill="#f6d2a2" d="M472.2 474.6c-.7 14.6-15.3 7.8-21.8 3.3-6.3-4.3-8.1-.7-8.7-9.3-.3-5.6-1-11.2-.7-16.8a41 41 0 0 1 27.5 7c4 2.9 11.5 12.2 3.7 15.8"/>
    <path fill="#c6b198" d="M472.2 474.6c-2.1-.8-4.4-1.3-5.8-3.3"/>
    <path fill="#37abc8" d="M290 210.6c55.8 0 108.2 8 135.5 61.6 24.5 60.2 15.8 125 19.5 188.6 3.2 54.6 10.3 117.6-15 168.2-26.6 53.2-93.2 66.6-148 64.6-43.1-1.5-95.1-15.6-119.4-55-28.6-46-15-114.7-13-166.1 2.5-60.8-16.5-121.9 3.5-181.4 20.8-61.8 76.7-75.7 136.9-80.5"/>
    <path fill="#fff" d="M299.9 285.6c10 58.3 105.3 42.8 91.6-16-12.3-52.7-95-38-91.6 16M186 295c13 50.7 94.2 37.7 91.2-13.2-3.7-61-103.6-49.2-91.2 13.2m132.3 58.5c0 7.8 1.9 15.4.3 24.2-2 3.6-5.7 4-9 5.5-4.5-.7-8.3-3.7-10.1-8-1.2-9.1.4-18 .7-27.2z"/>
    <ellipse cx="208.4" cy="286.7" rx="13.7" ry="14.9"/>
    <ellipse cx="214.6" cy="290.1" fill="#fff" rx="3.2" ry="3.8"/>
    <ellipse cx="323.4" cy="283" rx="13.5" ry="14.9"/>
    <ellipse cx="329.5" cy="286.4" fill="#fff" rx="3.2" ry="3.8"/>
    <path fill="#fff" d="M279.1 354.7c-6 14.5 3.4 43.5 19.6 22.1-1.1-9.2.5-18.1.7-27.3z"/>
    <path fill="#f6d2a2" d="M278.2 326.8c-11.2.9-20.3 14.2-14.5 24.7 7.7 13.9 24.8-1.3 35.5.1 12.3.3 22.4 13 32.2 2.4 11-12-4.7-23.5-17-28.7z"/>
    <path fill="#ef9325" d="M135.2 375.4s3.6 38.2 3.3 54.7c-.2 16.5 15.6 6 16.4 32s-9.6 21-15 33.7c-5.5 12.7-9.2 72.2-9.2 72.2s5.6 11 23.1 21 45.8 15.7 70.2 14.6 42-6.3 46.3-9.2c4.3-3 11.6-12 14.3-19.2s8.4-65.4 8-98.7-5.9-64.2-5.9-64.2z"/>
    <path fill="#e5e5e5" d="M290 537.8c-72 8-155.4-14.1-155.4-14.1s1.2-22.6 6.6-30.5c74.8 23.2 150.3 15.9 150.3 15.9a93 93 0 0 1-1.5 28.7zm-9 44.4c-72 8-150.3-15-150.3-15s-.3-21.7 2.6-31.2C208 559.2 288 553.4 288 553.4c-.6 11.5-2.3 22.7-7 28.8z"/>
    <path fill="#ef9325" d="M452.2 375.4s-.5 38.2-.3 54.7c.3 16.5-9.6 6-10.4 32s9.7 21 15.2 33.7c5.6 12.7 9.4 72.2 9.4 72.2s-5.7 11-23.5 21-46.3 15.7-71 14.6-42.5-6.3-47-9.2-11.7-12-14.4-19.2-8.5-65.4-8.1-98.7 6-64.2 6-64.2z"/>
    <path fill="#e5e5e5" d="M304.7 537.8c72.9 8 157.4-14.1 157.4-14.1s-1.2-22.6-6.7-30.5c-75.8 23.2-152.2 15.9-152.2 15.9a92 92 0 0 0 1.5 28.7zm9.2 44.4c72.8 8 152.2-15 152.2-15s.2-21.7-2.7-31.2c-75.8 23.2-156.7 17.4-156.7 17.4.7 11.5 2.3 22.7 7.2 28.8z"/>
    <path fill="#d2e261" d="M481.2 445.5c-2.2 4.3-6.7 6.4-10 4.6l-2.6-1.4c-3.3-1.7-4-6.6-1.8-10.8l51-96.3c2.2-4.2 6.7-6.3 10-4.6l2.6 1.4c3.3 1.7 4 6.6 1.8 10.9z"/>
    <path d="M457.1 491c-1.3 2.5-5 3-8.3 1.3l-2.6-1.3c-3.2-1.8-4.8-5.2-3.5-7.7l24-45.1c1.2-2.5 5-3.1 8.2-1.4l2.6 1.4c3.3 1.7 4.9 5.1 3.6 7.6z"/>
    <path fill="#9b9b9b" d="m478.4 436.5-2.6-1.3c-3.3-1.8-6.6-1.9-7.5-.3l-1.5 3c.9-1.7 4.2-1.6 7.5.1l2.6 1.4c3.2 1.8 5.2 4.5 4.3 6l1.6-2.8c.8-1.6-1.1-4.3-4.4-6z"/>
  </g>
  <ellipse cx="301.8" cy="91.3" fill="#f6d2a2" rx="7.2" ry="5.6" transform="rotate(20.4)"/>
  <path fill="#d2e261" d="M30.4 181c1.3 2.7 4.1 4.2 6.3 3.2l1.7-.8c2.1-1 2.8-4.1 1.5-7L10 113.6c-1.3-2.8-4.1-4.2-6.2-3.2l-1.7.8c-2.2 1-2.8 4-1.5 6.9z"/>
  <path d="M44.5 210.7c.7 1.6 3 2 5.2 1l1.7-.7c2.2-1 3.3-3.2 2.5-4.8l-14-29.5c-.7-1.7-3-2.2-5.2-1.2l-1.7.8c-2.2 1-3.3 3.2-2.5 4.8z"/>
  <path fill="#9b9b9b" d="m32.5 175.3 1.7-.8c2.1-1 4.3-1 4.8 0l.8 2c-.5-1.1-2.6-1.2-4.7-.1l-1.7.8c-2.2 1-3.5 2.6-3 3.7l-.9-1.9c-.5-1 .8-2.7 3-3.7z"/>
  <ellipse cx="22.9" cy="-196" fill="#f6d2a2" rx="7.2" ry="5.6" transform="rotate(159.6)"/>
  <g transform="matrix(.64 0 0 .64 -41 -104.9)">
    <path fill="#960000" d="M159.1 324.7a8.6 8.6 0 0 1-11.7 3.1l-4.8-2.7a8.6 8.6 0 0 1-3.7-11.5l50.7-92.2c2.2-4 7.5-5.4 11.7-3.1l4.9 2.7c4.2 2.3 5.3 6.7 3.6 11.5a348 348 0 0 1-50.7 92.2z"/>
    <path fill="#595959" d="M172.6 272c15.4-28 25.5-52.1 23-54.9h.1l-.2-.2c-23.7-12.8-55.6 0-71.3 28.6s-9.4 62.3 14.1 75.5l.2.1v-.1c3.7.6 18.6-20.9 34-49z"/>
    <path fill="#960000" d="M426.7 325c2 4 7.3 5.5 11.6 3.3l5-2.5c4.2-2.2 6-7.3 4-11.4l-48.1-93.7a8.6 8.6 0 0 0-11.6-3.4l-5 2.6c-4.3 2.2-5.5 6.5-4 11.4a348 348 0 0 0 48 93.6z"/>
    <path fill="#595959" d="M414.8 271.9c-14.6-28.5-24-52.9-21.5-55.6h-.1l.2-.2c24-12.1 55.6 1.5 70.5 30.6s7.6 62.6-16.3 75l-.2.2v-.1c-3.7.5-18-21.4-32.6-50z"/>
    <path fill="#353535" d="M462.4 259.9s-17.8-44.5-38.4-68c-20.5-23.5-222-31.5-255 0s-45.5 68-45.5 68V250s15.3-43.2 45.5-68 229-23.3 254.6 0c25.6 23.5 38.8 68 38.8 68z"/>
    <ellipse cx="462.1" cy="248.2" fill="#960000" rx="6.9" ry="17" transform="rotate(152.8 462.1 248.2)"/>
    <ellipse cx="126" cy="247" fill="#960000" rx="6.9" ry="17" transform="rotate(28.8 126 247)"/>
    <path fill="#fff" d="M386.5 250.5H198.7c-33.7 0-33.6 89.6-2 94.8l65.5-4.2c8 0 23.7-30.7 26.7-33.1s12.7-2.7 16.6 0 12.6 30 20.5 30l65.4 7.3c30.6-14.1 22.9-94.8-5-94.8z" opacity=".6"/>
    <path fill="#fff" d="M248.5 269c-20.6-.4-53-.3-70.7-.1-3 9.7-6.3 22-4.6 34H249c15 0 27.5 2.9 39.2 6 .2-.5.5-.7.7-.9 3-2.4 12.7-2.7 16.6 0 1 .7 2.3 3 3.8 6.2a93 93 0 0 0 18.2 2.2c16.9.2 56.5.1 82 0 3.3-10.8.9-22.4.2-33.4-25 0-64.5-.5-83.5-.5-26.7 0-50-12.9-77.7-13.5z" opacity=".5"/>
  </g>
  <path d="M135.9 103.6c-.5-12.3 23-13.9 25.8-3.5 2.8 10.3-24.6 12.7-25.8 3.5-1-7.3 0 0 0 0z"/>
</svg>
