<svg xmlns="http://www.w3.org/2000/svg" xmlns:xlink="http://www.w3.org/1999/xlink" viewBox="0 0 88 31">
  <defs>
    <path id="a" d="M0 0h83v1H0z"/>
    <path id="b" d="M0 0h1v31H0z"/>
    <path id="c" d="M.16.01h80v1h-80z"/>
    <path id="e" d="M0-30h88V1H0z"/>
    <path id="g" d="M-82 0H6v31h-88z"/>
    <path id="k" d="M-2-29h88V2H-2z"/>
    <path id="n" fill="#383530" d="M0-30h83V1H0z"/>
    <path id="o" fill="#383838" d="M.37-30h36.44V1H.37z"/>
  </defs>
  <defs>
    <use xlink:href="#a" id="h"/>
    <use xlink:href="#a" id="l"/>
    <use xlink:href="#b" id="p"/>
    <use xlink:href="#a" id="r"/>
    <use xlink:href="#a" id="v"/>
    <use xlink:href="#c" id="x"/>
    <use xlink:href="#a" id="z"/>
    <use xlink:href="#b" id="B"/>
    <use xlink:href="#a" id="D"/>
    <path id="t" d="M.81 0h1v30h-1z"/>
  </defs>
  <g fill="none" fill-rule="evenodd">
    <path d="M0 0h88v31H0z"/>
    <path fill="#FC6" d="M0 0h83v31H0z"/>
    <path fill="#FFF" d="M.36 0H36.8v31H.36z"/>
    <path d="M4.69 2.29h40V26.9h-40z"/>
    <path fill="#504D4C" d="M0 30h83v1H0z"/>
    <g transform="translate(0 30)">
      <mask id="d" fill="#fff">
        <use xlink:href="#a"/>
      </mask>
      <g mask="url(#d)">
        <use xlink:href="#e"/>
        <path fill="#4E4B3F" d="M0-30h83V1H0z"/>
        <path fill="#4F4F4F" d="M.36-30H36.8V1H.36z"/>
      </g>
    </g>
    <path fill="#504D4C" d="M82 0h1v31h-1z"/>
    <g transform="translate(82)">
      <mask id="f" fill="#fff">
        <use xlink:href="#b"/>
      </mask>
      <g mask="url(#f)">
        <use xlink:href="#g"/>
        <path fill="#4E4B3F" d="M-82 0H1v31h-83z"/>
        <path fill="#191919" d="M-82 30H1v1h-83z"/>
        <g transform="translate(-82 30)">
          <mask id="i" fill="#fff">
            <use xlink:href="#h"/>
          </mask>
          <g mask="url(#i)">
            <use xlink:href="#e"/>
            <path fill="#191917" d="M0-30h83V1H0z"/>
            <path fill="#191919" d="M.37-30h36.44V1H.37z"/>
          </g>
        </g>
      </g>
    </g>
    <path fill="#CCC" d="M0 0h1v31H0z"/>
    <path fill="#9E9C9C" d="M2.16 29.01h80v1h-80z"/>
    <g transform="translate(2 29)">
      <mask id="j" fill="#fff">
        <use xlink:href="#c"/>
      </mask>
      <g mask="url(#j)">
        <use xlink:href="#k"/>
        <path fill="#B39F67" d="M-2-29h83V2H-2z"/>
        <path fill="#B5B5B5" d="M-1.64-29H34.8V2H-1.64z"/>
        <path fill="#383838" d="M-2 1h83v1H-2z"/>
        <g transform="translate(-2 1)">
          <mask id="m" fill="#fff">
            <use xlink:href="#l"/>
          </mask>
          <g mask="url(#m)">
            <use xlink:href="#e"/>
            <use xlink:href="#n"/>
            <use xlink:href="#o"/>
          </g>
        </g>
        <path fill="#383838" d="M80-29h1V2h-1z"/>
        <g transform="translate(80 -29)">
          <mask id="q" fill="#fff">
            <use xlink:href="#p"/>
          </mask>
          <g mask="url(#q)">
            <use xlink:href="#g"/>
            <path fill="#383530" d="M-82 0H1v31h-83z"/>
            <path fill="#131313" d="M-82 30H1v1h-83z"/>
            <g transform="translate(-82 30)">
              <mask id="s" fill="#fff">
                <use xlink:href="#r"/>
              </mask>
              <g mask="url(#s)">
                <use xlink:href="#e"/>
                <path fill="#131313" d="M0-30h83V1H0z"/>
                <path fill="#131313" d="M.37-30h36.44V1H.37z"/>
              </g>
            </g>
          </g>
        </g>
      </g>
    </g>
    <path fill="#9E9C9C" d="M80.81 1h1v30h-1z"/>
    <g transform="translate(80 1)">
      <mask id="u" fill="#fff">
        <use xlink:href="#t"/>
      </mask>
      <g mask="url(#u)">
        <path d="M-80-1H8v31h-88z"/>
        <path fill="#B39F67" d="M-80-1H3v31h-83z"/>
        <path fill="#383838" d="M-80 29H3v1h-83z"/>
        <g transform="translate(-80 29)">
          <mask id="w" fill="#fff">
            <use xlink:href="#v"/>
          </mask>
          <g mask="url(#w)">
            <use xlink:href="#e"/>
            <use xlink:href="#n"/>
            <use xlink:href="#o"/>
          </g>
        </g>
        <path fill="#818181" d="M-77.84 28.01h80v1h-80z"/>
        <g transform="translate(-78 28)">
          <mask id="y" fill="#fff">
            <use xlink:href="#x"/>
          </mask>
          <g mask="url(#y)">
            <use xlink:href="#k"/>
            <path fill="#807659" d="M-2-29h83V2H-2z"/>
            <path fill="#818181" d="M-1.64-29H34.8V2H-1.64z"/>
            <path fill="#272727" d="M-2 1h83v1H-2z"/>
            <g transform="translate(-2 1)">
              <mask id="A" fill="#fff">
                <use xlink:href="#z"/>
              </mask>
              <g mask="url(#A)">
                <use xlink:href="#e"/>
                <path fill="#272623" d="M0-30h83V1H0z"/>
                <path fill="#272727" d="M.37-30h36.44V1H.37z"/>
              </g>
            </g>
            <path fill="#272727" d="M80-29h1V2h-1z"/>
            <g transform="translate(80 -29)">
              <mask id="C" fill="#fff">
                <use xlink:href="#B"/>
              </mask>
              <g mask="url(#C)">
                <use xlink:href="#g"/>
                <path fill="#272623" d="M-82 0H1v31h-83z"/>
                <path fill="#101010" d="M-82 30H1v1h-83z"/>
                <g transform="translate(-82 30)">
                  <mask id="E" fill="#fff">
                    <use xlink:href="#D"/>
                  </mask>
                  <g mask="url(#E)">
                    <use xlink:href="#e"/>
                    <path fill="#101010" d="M0-30h83V1H0z"/>
                    <path fill="#101010" d="M.37-30h36.44V1H.37z"/>
                  </g>
                </g>
              </g>
            </g>
          </g>
        </g>
      </g>
    </g>
    <path fill="#CCC" d="M0 0h83v1H0z"/>
    <path stroke="#900" stroke-width="4.81" d="m68.27 18.84 6.02 5.51L86 12.64"/>
    <path fill="#000" fill-rule="nonzero" d="M39.99 5.82h1.88V8.6h2.77V5.82h1.88v7.29h-1.88v-3.09h-2.77v3.09h-1.88zm7.1 0h6.72v1.42h-2.42v5.87h-1.88V7.24h-2.42zm7.29 0h2.39l1.66 3.9 1.67-3.9h2.39v7.29h-1.78V7.78l-1.68 3.93h-1.19l-1.68-3.93v5.33h-1.78zm9.55 0h1.88v5.87h3.3v1.42h-5.18zm11.62 4.9a2.35 2.35 0 0 1-.81 1.86c-.3.24-.63.42-1.02.53a4.3 4.3 0 0 1-1.3.18 6.52 6.52 0 0 1-2.42-.44v-1.57h.2c.3.17.6.32.94.43a3.08 3.08 0 0 0 1.66.1c.23-.04.42-.13.56-.25.1-.1.19-.2.24-.3.06-.1.09-.26.09-.47a.8.8 0 0 0-.11-.43.9.9 0 0 0-.3-.3 1.6 1.6 0 0 0-.62-.2 4.87 4.87 0 0 0-2.18.17h-.21V6h5.08v1.37H72v1.16a11.86 11.86 0 0 1 .78-.02c.39 0 .74.04 1.05.11.3.08.57.18.8.32.29.17.52.4.68.7.16.28.24.65.24 1.08ZM33.08 7.04l.33 2.03-1.18 2.27s-.46-.96-1.21-1.5c-.64-.44-1.05-.54-1.7-.4-.84.16-1.78 1.16-2.2 2.39-.48 1.47-.49 2.18-.5 2.83a6.42 6.42 0 0 0 .13 1.66s-.72-1.33-.71-3.28c0-1.39.22-2.65.87-3.9.56-1.09 1.4-1.74 2.15-1.82.77-.08 1.38.3 1.85.7.5.42 1 1.34 1 1.34l1.17-2.32Zm.14 11.51s-.52.93-.85 1.3c-.32.35-.9.99-1.63 1.3-.72.32-1.1.38-1.8.32a3.58 3.58 0 0 1-1.61-.66 6.28 6.28 0 0 1-1.16-1.15c-.34-.47-.86-1.41-.86-1.41s.3.94.47 1.34c.1.23.43.94.89 1.56.43.57 1.26 1.56 2.52 1.78a3.15 3.15 0 0 0 2.34-.48 6.47 6.47 0 0 0 1.7-1.8l.3-.53-.3-1.57Z"/>
    <g fill="#0c479d" fill-rule="nonzero">
      <path d="m11.44 7.13 2.85 9.69 2.85-9.69h2.07l-4.73 15.93h-.19l-2.95-9.88-2.95 9.88h-.2L3.47 7.13h2.07l2.85 9.69 1.93-6.53-.95-3.16z"/>
      <path d="M25.07 17.95c0 1.44-.38 2.65-1.15 3.64a3.61 3.61 0 0 1-2.98 1.47c-.92 0-1.72-.3-2.4-.87a5.15 5.15 0 0 1-1.51-2.38l1.6-.66c.25.6.56 1.08.94 1.42a2 2 0 0 0 1.37.52c.55 0 1.02-.3 1.4-.92.38-.62.57-1.36.57-2.22 0-.96-.2-1.7-.61-2.23-.47-.61-1.21-.92-2.22-.92h-.8v-.95l2.76-4.76h-3.32l-.93 1.58h-.59V7.13h7.68v.96l-2.92 5.02c1.03.32 1.8.92 2.32 1.79.53.86.8 1.88.8 3.05Z"/>
    </g>
  </g>
</svg>
